<svg width="273" height="212" viewBox="0 0 273 212" fill="none" xmlns="http://www.w3.org/2000/svg">
<path d="M100.838 211.154C97.3716 211.154 94.0589 210.457 91.5885 209.032L3.75005 158.313C1.33641 156.92 0 154.976 0 152.854C0 150.303 1.91957 147.727 5.26464 145.799L160.134 56.4138C166.419 52.7852 175.961 52.3965 181.411 55.539L269.25 106.258C271.664 107.651 273 109.595 273 111.717C273 114.268 271.08 116.844 267.735 118.78L112.858 208.157C109.424 210.141 105.017 211.154 100.838 211.154ZM91.783 208.683C97.1205 211.761 106.483 211.372 112.655 207.809L267.525 118.423C270.74 116.568 272.587 114.122 272.587 111.717C272.587 109.741 271.331 107.926 269.039 106.606L181.201 55.8873C175.863 52.8014 166.5 53.1983 160.329 56.7621L5.45902 146.148C2.24354 148.002 0.396865 150.448 0.396865 152.854C0.396865 154.83 1.65228 156.644 3.94443 157.965L91.783 208.683Z" fill="#419586"/>
<path d="M35.6537 184.563C40.1582 184.563 43.8098 180.911 43.8098 176.407C43.8098 171.902 40.1582 168.251 35.6537 168.251C31.1492 168.251 27.4976 171.902 27.4976 176.407C27.4976 180.911 31.1492 184.563 35.6537 184.563Z" fill="#70B8A1" fill-opacity="0.09"/>
<path d="M37.9782 176.407C37.9782 177.695 36.9334 178.731 35.6536 178.731C34.3658 178.731 33.3291 177.686 33.3291 176.407C33.3291 175.119 34.3739 174.082 35.6536 174.082C36.9415 174.082 37.9782 175.127 37.9782 176.407Z" fill="#419586"/>
<path d="M11.8578 171.086C16.3623 171.086 20.0139 167.434 20.0139 162.93C20.0139 158.425 16.3623 154.773 11.8578 154.773C7.3533 154.773 3.70166 158.425 3.70166 162.93C3.70166 167.434 7.3533 171.086 11.8578 171.086Z" fill="#70B8A1" fill-opacity="0.09"/>
<path d="M14.1823 162.929C14.1823 164.217 13.1375 165.254 11.8578 165.254C10.57 165.254 9.5332 164.209 9.5332 162.929C9.5332 161.642 10.5781 160.605 11.8578 160.605C13.1375 160.605 14.1823 161.65 14.1823 162.929Z" fill="#419586"/>
<path d="M220.815 153.785C225.32 153.785 228.971 150.134 228.971 145.629C228.971 141.125 225.32 137.473 220.815 137.473C216.311 137.473 212.659 141.125 212.659 145.629C212.659 150.134 216.311 153.785 220.815 153.785Z" fill="#70B8A1" fill-opacity="0.09"/>
<path d="M223.14 145.629C223.14 146.917 222.095 147.954 220.815 147.954C219.527 147.954 218.491 146.909 218.491 145.629C218.491 144.341 219.536 143.305 220.815 143.305C222.103 143.305 223.14 144.341 223.14 145.629Z" fill="#419586"/>
<path d="M235.937 144.876C240.441 144.876 244.093 141.224 244.093 136.72C244.093 132.215 240.441 128.564 235.937 128.564C231.432 128.564 227.781 132.215 227.781 136.72C227.781 141.224 231.432 144.876 235.937 144.876Z" fill="#70B8A1" fill-opacity="0.09"/>
<path d="M238.261 136.72C238.261 138.007 237.217 139.044 235.937 139.044C234.649 139.044 233.612 137.999 233.612 136.72C233.612 135.432 234.657 134.395 235.937 134.395C237.225 134.395 238.261 135.432 238.261 136.72Z" fill="#419586"/>
<path d="M251.058 136.096C255.563 136.096 259.215 132.444 259.215 127.94C259.215 123.435 255.563 119.784 251.058 119.784C246.554 119.784 242.902 123.435 242.902 127.94C242.902 132.444 246.554 136.096 251.058 136.096Z" fill="#70B8A1" fill-opacity="0.09"/>
<path d="M253.383 127.94C253.383 129.228 252.338 130.265 251.058 130.265C249.779 130.265 248.734 129.22 248.734 127.94C248.734 126.652 249.779 125.615 251.058 125.615C252.338 125.615 253.383 126.66 253.383 127.94Z" fill="#419586"/>
<path opacity="0.5" d="M95.7191 200.252L19.8354 156.442C17.0006 154.806 17.357 151.947 20.6291 150.052L166.063 66.0848C169.335 64.1976 174.292 63.9871 177.127 65.6231L253.01 109.433C255.845 111.069 255.489 113.928 252.217 115.824L106.783 199.791C103.511 201.686 98.562 201.888 95.7191 200.252Z" fill="#233244"/>
<path d="M254.93 81.887L245.251 83.5797L177.135 44.2569C174.3 42.6208 169.343 42.8233 166.071 44.7186L34.9327 120.432L17.9238 123.413V128.945H17.9319C17.9076 130.006 18.5232 131.026 19.8353 131.788L95.719 175.598C98.5538 177.234 103.511 177.031 106.783 175.136L252.217 91.1689C253.998 90.1403 254.914 88.8201 254.922 87.5728H254.93V81.887Z" fill="#192533"/>
<path opacity="0.5" d="M254.93 81.887L245.251 83.5797L177.135 44.2569C174.3 42.6208 169.343 42.8233 166.071 44.7186L34.9327 120.432L17.9238 123.413V128.945H17.9319C17.9076 130.006 18.5232 131.026 19.8353 131.788L95.719 175.598C98.5538 177.234 103.511 177.031 106.783 175.136L252.217 91.1689C253.998 90.1403 254.914 88.8201 254.922 87.5728H254.93V81.887Z" fill="#344E6C"/>
<path d="M252.225 87.7428L106.783 171.71C103.511 173.597 98.5538 173.807 95.719 172.171L19.8353 128.361C18.5232 127.6 17.8995 126.588 17.9319 125.519H17.9238V126.968H17.9319C17.9076 128.029 18.5232 129.05 19.8353 129.811L95.719 173.621C98.5538 175.257 103.511 175.055 106.783 173.16L252.217 89.1926C253.998 88.1639 254.914 86.8437 254.922 85.5964H254.93V84.1466H254.922C254.914 85.3939 254.007 86.7141 252.225 87.7428Z" fill="#EDE7D9"/>
<path d="M95.7191 169.936L19.8354 126.126C17.0006 124.49 17.357 121.631 20.6291 119.736L166.071 35.7766C169.343 33.8895 174.3 33.6789 177.135 35.315L253.019 79.1249C255.853 80.761 255.497 83.6201 252.225 85.5154L106.783 169.482C103.511 171.37 98.562 171.572 95.7191 169.936Z" fill="#192533"/>
<path opacity="0.7" d="M95.7191 169.936L19.8354 126.126C17.0006 124.49 17.357 121.631 20.6291 119.736L166.071 35.7766C169.343 33.8895 174.3 33.6789 177.135 35.315L253.019 79.1249C255.853 80.761 255.497 83.6201 252.225 85.5154L106.783 169.482C103.511 171.37 98.562 171.572 95.7191 169.936Z" fill="#192533"/>
<g opacity="0.4">
<path opacity="0.5" d="M254.93 80.7285L245.251 82.4213L177.135 43.0985C174.3 41.4624 169.343 41.6649 166.071 43.5601L34.9327 119.274L17.9238 122.254V123.291H17.9319C17.9076 124.352 18.5232 125.373 19.8353 126.134L95.719 169.944C98.5538 171.58 103.511 171.378 106.783 169.482L252.217 85.5153C253.998 84.4866 254.914 83.1664 254.922 81.9191H254.93V80.7285Z" fill="#192533"/>
<path opacity="0.7" d="M95.7191 168.786L19.8354 124.976C17.0006 123.34 17.357 120.481 20.6291 118.585L166.071 34.6185C169.343 32.7313 174.3 32.5207 177.135 34.1568L253.019 77.9668C255.853 79.6028 255.497 82.462 252.225 84.3572L106.783 168.324C103.511 170.211 98.562 170.422 95.7191 168.786Z" fill="#1759A5"/>
<path d="M95.7191 168.786L19.8354 124.976C17.0006 123.34 17.357 120.481 20.6291 118.585L166.071 34.6185C169.343 32.7313 174.3 32.5207 177.135 34.1568L253.019 77.9668C255.853 79.6028 255.497 82.462 252.225 84.3572L106.783 168.324C103.511 170.211 98.562 170.422 95.7191 168.786Z" fill="#192533"/>
</g>
<path d="M60.4867 152.514C60.4867 153.186 60.0817 153.494 59.5714 153.202L53.6184 149.768C53.1162 149.477 52.7031 148.699 52.7031 148.027C52.7031 147.355 53.1081 147.047 53.6184 147.338L59.5714 150.773C60.0736 151.056 60.4867 151.842 60.4867 152.514Z" fill="#192533"/>
<path d="M77.1877 162.152C77.1877 162.695 76.807 162.913 76.3372 162.646C75.8675 162.371 75.4868 161.715 75.4868 161.172C75.4868 160.629 75.8675 160.411 76.3372 160.678C76.807 160.953 77.1877 161.609 77.1877 162.152Z" fill="#192533"/>
<path d="M80.549 164.096C80.549 164.639 80.1683 164.857 79.6986 164.59C79.2288 164.315 78.8481 163.659 78.8481 163.116C78.8481 162.573 79.2288 162.355 79.6986 162.622C80.1602 162.889 80.549 163.553 80.549 164.096Z" fill="#192533"/>
<path d="M83.9021 166.032C83.9021 166.574 83.5214 166.793 83.0516 166.526C82.5819 166.25 82.2012 165.594 82.2012 165.052C82.2012 164.509 82.5819 164.29 83.0516 164.558C83.5214 164.825 83.9021 165.489 83.9021 166.032Z" fill="#192533"/>
<path d="M30.9885 135.481C30.9885 136.023 30.6078 136.242 30.138 135.975C29.6683 135.699 29.2876 135.043 29.2876 134.501C29.2876 133.958 29.6683 133.739 30.138 134.007C30.6078 134.282 30.9885 134.938 30.9885 135.481Z" fill="#192533"/>
<path d="M34.3498 137.425C34.3498 137.967 33.9691 138.186 33.4994 137.919C33.0296 137.643 32.6489 136.987 32.6489 136.444C32.6489 135.902 33.0296 135.683 33.4994 135.95C33.9691 136.218 34.3498 136.874 34.3498 137.425Z" fill="#192533"/>
<path d="M37.7028 139.36C37.7028 139.903 37.3222 140.122 36.8524 139.854C36.3826 139.579 36.002 138.923 36.002 138.38C36.002 137.838 36.3826 137.619 36.8524 137.886C37.3222 138.153 37.7028 138.818 37.7028 139.36Z" fill="#192533"/>
<path opacity="0.5" d="M95.7191 168.786L19.8354 124.976C17.0006 123.34 17.357 120.481 20.6291 118.585L166.071 34.6185C169.343 32.7313 174.3 32.5207 177.135 34.1568L253.019 77.9668C255.853 79.6028 255.497 82.462 252.225 84.3572L106.783 168.324C103.511 170.211 98.562 170.422 95.7191 168.786Z" fill="#192533"/>
<path opacity="0.5" d="M95.7191 168.786L19.8354 124.976C17.0006 123.34 17.357 120.481 20.6291 118.585L166.071 34.6185C169.343 32.7313 174.3 32.5207 177.135 34.1568L253.019 77.9668C255.853 79.6028 255.497 82.462 252.225 84.3572L106.783 168.324C103.511 170.211 98.562 170.422 95.7191 168.786Z" fill="#344E6C"/>
<path opacity="0.9" d="M97.0395 168.729L21.1558 124.919C18.078 123.056 17.5273 121.088 21.9496 118.529L167.383 34.5697C168.857 33.7193 170.672 33.209 172.478 33.0551C170.259 33.0308 167.902 33.5573 166.071 34.6183L20.6375 118.585C17.3653 120.472 17.0089 123.34 19.8437 124.976L95.7274 168.786C97.2906 169.685 99.4856 170.025 101.697 169.839C99.9472 169.814 98.2868 169.45 97.0395 168.729Z" fill="#419586"/>
<path d="M137.456 140.697L68.8857 101.107L137.456 61.5166L206.026 101.107L137.456 140.697Z" fill="#344E6C"/>
<path d="M137.456 67.0971L201.19 103.901L206.026 101.107L137.456 61.5166L68.8857 101.107L73.7211 103.893L137.456 67.0971Z" fill="#1F3372"/>
<path opacity="0.5" d="M137.456 67.0971L201.19 103.901L206.026 101.107L137.456 61.5166L68.8857 101.107L73.7211 103.893L137.456 67.0971Z" fill="#223040"/>
<path opacity="0.5" d="M137.456 67.0971L73.7211 103.901L68.8857 101.107L137.456 61.5166L206.026 101.107L201.19 103.893L137.456 67.0971Z" fill="#223040"/>
<mask id="mask0_425_7851" style="mask-type:luminance" maskUnits="userSpaceOnUse" x="68" y="0" width="139" height="141">
<path d="M137.456 140.697L68.8857 101.107V11.2918L139.44 0.479004L199.222 30.4227L206.026 101.107L137.456 140.697Z" fill="white"/>
</mask>
<g mask="url(#mask0_425_7851)">
<path d="M137.529 176.019L81.8125 143.848L137.529 111.685L193.245 143.856L137.529 176.019Z" fill="#192533"/>
<path d="M137.529 166.761L81.8125 134.598L137.529 102.435L193.245 134.598L137.529 166.761Z" fill="#192533"/>
<g opacity="0.9">
<path d="M137.528 109.62L94.5122 84.7866L137.528 59.9537L180.545 84.7866L137.528 109.62Z" fill="url(#paint0_linear_425_7851)"/>
<path d="M180.545 84.7864V134.598L137.528 159.431V109.619L180.545 84.7864Z" fill="url(#paint1_linear_425_7851)"/>
<path d="M94.5122 84.7864V134.598L137.528 159.431V109.619L94.5122 84.7864Z" fill="#419586"/>
</g>
<path opacity="0.7" d="M137.528 159.431L94.5122 134.598L137.528 109.765L180.545 134.598L137.528 159.431Z" fill="url(#paint2_linear_425_7851)"/>
<path d="M193.245 134.598V143.856L137.529 176.019V166.761L193.245 134.598Z" fill="url(#paint3_linear_425_7851)"/>
<path d="M81.8125 134.598V143.848L137.529 176.019V166.761L81.8125 134.598Z" fill="#192533"/>
<path opacity="0.7" d="M81.8125 134.598V143.848L137.529 176.019V166.761L81.8125 134.598Z" fill="url(#paint4_linear_425_7851)"/>
<path d="M137.529 98.6609L81.8125 66.498L137.529 34.327L193.245 66.498L137.529 98.6609Z" fill="#192533"/>
<path d="M81.8125 57.2404V66.498L137.529 98.6609V89.4114L81.8125 57.2404Z" fill="#192533"/>
<path opacity="0.3" d="M137.529 98.6608V166.761L81.8125 134.598V66.4979L137.529 98.6608Z" fill="#419586"/>
<path opacity="0.3" d="M94.5122 73.828V134.598L137.528 159.431L180.545 134.598V73.828L137.528 98.6609L94.5122 73.828Z" fill="#419586"/>
<path opacity="0.3" d="M137.528 98.6609V159.431L94.5122 134.598V73.828L137.528 98.6609Z" fill="#419586"/>
<path opacity="0.5" d="M81.8125 66.4979V134.598L137.529 166.761L193.245 134.598V66.4979L137.529 98.6608L81.8125 66.4979Z" fill="#EDE7D9"/>
<path d="M137.529 89.4113L81.8125 57.2402L137.529 25.0773L193.245 57.2402L137.529 89.4113Z" fill="#192533"/>
<path opacity="0.7" d="M137.529 89.4113L81.8125 57.2402L137.529 25.0773L193.245 57.2402L137.529 89.4113Z" fill="#55759A"/>
<path d="M193.245 57.2404V66.498L137.529 98.6609V89.4114L193.245 57.2404Z" fill="#344E6C"/>
<path opacity="0.7" d="M81.8125 57.2404V66.498L137.529 98.6609V89.4114L81.8125 57.2404Z" fill="#223040"/>
<path d="M83.1324 57.2404L138.184 25.4582L137.528 25.0775L81.8203 57.2404L137.528 89.4114L138.192 89.0308L83.1324 57.2404Z" fill="#419586"/>
<path d="M137.528 86.3662L86.915 57.1434L137.528 34.1086L188.142 57.1434L137.528 86.3662Z" fill="#192533"/>
<path d="M86.915 54.9241V57.1433L137.528 86.3661V84.1469L86.915 54.9241Z" fill="#192533"/>
<path d="M137.528 84.1468L86.915 54.9239L137.528 25.7092L188.142 54.9239L137.528 84.1468Z" fill="#192533"/>
<path opacity="0.7" d="M137.528 84.1468L86.915 54.9239L137.528 25.7092L188.142 54.9239L137.528 84.1468Z" fill="#2A3A4C"/>
<path d="M188.142 54.9241V57.1433L137.528 86.3661V84.1469L188.142 54.9241Z" fill="#192533"/>
<path opacity="0.7" d="M86.915 54.9241V57.1433L137.528 86.3661V84.1469L86.915 54.9241Z" fill="#192533"/>
<path d="M88.1138 54.9239L138.128 26.0494L137.528 25.7092L86.915 54.9239L137.528 84.1468L138.128 83.8066L88.1138 54.9239Z" fill="#435D7B"/>
<path d="M103.13 56.0336L101.219 54.924L137.529 33.9626L139.44 35.0641L103.13 56.0336Z" fill="#419586"/>
<path d="M106.953 58.2366L105.042 57.1351L141.351 36.1656L143.263 37.2672L106.953 58.2366Z" fill="#419586"/>
<path d="M110.768 60.4478L108.856 59.3381L145.174 38.3768L147.086 39.4783L110.768 60.4478Z" fill="#419586"/>
<path d="M114.591 62.6508L112.68 61.5493L148.998 40.5798L150.909 41.6814L114.591 62.6508Z" fill="#419586"/>
<path d="M118.414 64.8618L116.502 63.7522L152.82 42.7908L154.732 43.8924L118.414 64.8618Z" fill="#419586"/>
<path d="M122.237 67.0651L120.325 65.9636L156.643 44.9941L158.555 46.0957L122.237 67.0651Z" fill="#419586"/>
<path d="M126.06 69.2763L124.148 68.1667L160.466 47.2053L162.378 48.3068L126.06 69.2763Z" fill="#419586"/>
<path d="M129.883 71.4793L127.971 70.3778L164.289 49.4083L166.201 50.5099L129.883 71.4793Z" fill="#419586"/>
<path d="M133.705 73.6903L131.794 72.5807L168.112 51.6193L170.023 52.7208L133.705 73.6903Z" fill="#419586"/>
<path d="M137.529 75.8934L135.617 74.7919L171.935 53.8224L173.847 54.9239L137.529 75.8934Z" fill="#419586"/>
<path d="M137.529 33.9626L139.44 35.0641L137.529 36.1656V33.9626Z" fill="#70B8A1"/>
<path d="M141.352 36.1656L143.263 37.2672L141.352 38.3768V36.1656Z" fill="#70B8A1"/>
<path d="M145.174 38.3768L147.086 39.4783L145.174 40.5798V38.3768Z" fill="#70B8A1"/>
<path d="M148.998 40.5798L150.909 41.6814L148.998 42.791V40.5798Z" fill="#70B8A1"/>
<path d="M152.82 42.7911L154.732 43.8927L152.82 44.9942V42.7911Z" fill="#70B8A1"/>
<path d="M156.643 44.9941L158.555 46.0957L156.643 47.2053V44.9941Z" fill="#70B8A1"/>
<path d="M160.466 47.2053L162.378 48.3068L160.466 49.4084V47.2053Z" fill="#70B8A1"/>
<path d="M164.289 49.4083L166.201 50.5099L164.289 51.6195V49.4083Z" fill="#70B8A1"/>
<path d="M168.112 51.6193L170.024 52.7208L168.112 53.8224V51.6193Z" fill="#70B8A1"/>
<path d="M171.935 53.8224L173.847 54.9239L171.935 56.0335V53.8224Z" fill="#70B8A1"/>
<g opacity="0.4">
<path d="M103.13 56.0336L101.219 54.924L137.529 33.9626L139.44 35.0641L103.13 56.0336Z" fill="#419586"/>
<path d="M106.953 58.2366L105.042 57.1351L141.351 36.1656L143.263 37.2672L106.953 58.2366Z" fill="#419586"/>
<path d="M110.768 60.4478L108.856 59.3381L145.174 38.3768L147.086 39.4783L110.768 60.4478Z" fill="#419586"/>
<path d="M114.591 62.6508L112.68 61.5493L148.998 40.5798L150.909 41.6814L114.591 62.6508Z" fill="#419586"/>
<path d="M118.414 64.8618L116.502 63.7522L152.82 42.7908L154.732 43.8924L118.414 64.8618Z" fill="#419586"/>
<path d="M122.237 67.0651L120.325 65.9636L156.643 44.9941L158.555 46.0957L122.237 67.0651Z" fill="#419586"/>
<path d="M126.06 69.2763L124.148 68.1667L160.466 47.2053L162.378 48.3068L126.06 69.2763Z" fill="#419586"/>
<path d="M129.883 71.4793L127.971 70.3778L164.289 49.4083L166.201 50.5099L129.883 71.4793Z" fill="#419586"/>
<path d="M133.705 73.6903L131.794 72.5807L168.112 51.6193L170.023 52.7208L133.705 73.6903Z" fill="#419586"/>
<path d="M137.529 75.8934L135.617 74.7919L171.935 53.8224L173.847 54.9239L137.529 75.8934Z" fill="#419586"/>
</g>
<path opacity="0.5" d="M81.8125 66.4979V134.598L82.5819 135.044V66.9353L81.8125 66.4979Z" fill="#419586"/>
<path opacity="0.5" d="M193.245 66.4979V134.598L192.475 135.044V66.9353L193.245 66.4979Z" fill="#419586"/>
<path opacity="0.5" d="M137.528 98.6609L136.216 97.8995V166.016L137.528 166.761L138.849 166.016V97.8995L137.528 98.6609Z" fill="#419586"/>
<path opacity="0.5" d="M82.582 127.892L133.236 96.1826L97.1206 75.3346L82.582 83.2802V127.892Z" fill="#EDE7D9"/>
<path opacity="0.5" d="M93.9453 141.596L136.216 117.573V135.044L108.249 149.858L93.9453 141.596Z" fill="#EDE7D9"/>
<path d="M85.2788 74.881L133.317 102.597V100.427L85.2788 72.7103V74.881Z" fill="#419586"/>
<path d="M85.2788 79.9673L133.317 107.684V105.513L85.2788 77.7966V79.9673Z" fill="#419586"/>
<path d="M85.2788 85.0457L133.317 112.77V110.599L85.2788 82.8832V85.0457Z" fill="#419586"/>
<path d="M85.2788 90.1322L133.317 117.857V115.686L85.2788 87.9696V90.1322Z" fill="#419586"/>
<path d="M85.2788 95.2187L133.317 122.943V120.772L85.2788 93.0562V95.2187Z" fill="#419586"/>
<path d="M85.2788 100.305L133.317 128.029V125.859L85.2788 98.1425V100.305Z" fill="#419586"/>
<path d="M85.2788 105.391L133.317 133.116V130.945L85.2788 103.229V105.391Z" fill="#419586"/>
<path d="M85.2788 110.478L133.317 138.202V136.032L85.2788 108.315V110.478Z" fill="#419586"/>
<path d="M85.2788 115.564L133.317 143.289V141.118L85.2788 113.402V115.564Z" fill="#419586"/>
<path d="M85.2788 120.651L133.317 148.367V146.205L85.2788 118.488V120.651Z" fill="#419586"/>
<path d="M85.2788 125.737L133.317 153.454V151.291L85.2788 123.575V125.737Z" fill="#419586"/>
<path d="M85.2788 130.824L133.317 158.54V156.378L85.2788 128.661V130.824Z" fill="#419586"/>
<path d="M170.979 60.6179C171.53 60.9337 171.53 61.4521 170.979 61.768C170.428 62.0839 169.529 62.0839 168.979 61.768C168.428 61.4521 168.428 60.9337 168.979 60.6179C169.537 60.2939 170.428 60.2939 170.979 60.6179Z" fill="#C46060"/>
<path d="M174.089 58.8196C174.64 59.1355 174.64 59.6539 174.089 59.9698C173.539 60.2856 172.64 60.2856 172.089 59.9698C171.538 59.6539 171.538 59.1355 172.089 58.8196C172.648 58.4957 173.539 58.4957 174.089 58.8196Z" fill="#C46060"/>
<path d="M177.208 57.0216C177.758 57.3375 177.758 57.8558 177.208 58.1717C176.657 58.4876 175.758 58.4876 175.207 58.1717C174.656 57.8558 174.656 57.3375 175.207 57.0216C175.758 56.7057 176.657 56.7057 177.208 57.0216Z" fill="#C46060"/>
<path d="M142.753 101.155C142.753 101.755 142.331 102.484 141.813 102.783C141.295 103.083 140.874 102.84 140.874 102.241C140.874 101.641 141.295 100.912 141.813 100.613C142.331 100.313 142.753 100.556 142.753 101.155Z" fill="#419586"/>
<path d="M145.839 99.3734C145.839 99.9728 145.417 100.702 144.899 101.001C144.381 101.301 143.959 101.058 143.959 100.459C143.959 99.8594 144.381 99.1304 144.899 98.8307C145.425 98.5311 145.839 98.774 145.839 99.3734Z" fill="#419586"/>
<path d="M148.932 97.5917C148.932 98.191 148.511 98.92 147.993 99.2197C147.474 99.5193 147.053 99.2763 147.053 98.677C147.053 98.0776 147.474 97.3487 147.993 97.049C148.511 96.7493 148.932 96.9923 148.932 97.5917Z" fill="#419586"/>
<path d="M173.992 84.2031L150.35 97.8507V95.68L173.992 82.0325V84.2031Z" fill="#419586"/>
<path d="M142.753 106.242C142.753 106.841 142.331 107.57 141.813 107.87C141.295 108.169 140.874 107.926 140.874 107.327C140.874 106.728 141.295 105.999 141.813 105.699C142.331 105.399 142.753 105.642 142.753 106.242Z" fill="#419586"/>
<path d="M145.839 104.46C145.839 105.059 145.417 105.788 144.899 106.088C144.381 106.388 143.959 106.145 143.959 105.545C143.959 104.946 144.381 104.217 144.899 103.917C145.425 103.618 145.839 103.861 145.839 104.46Z" fill="#419586"/>
<path d="M148.932 102.678C148.932 103.277 148.511 104.006 147.993 104.306C147.474 104.606 147.053 104.363 147.053 103.763C147.053 103.164 147.474 102.435 147.993 102.135C148.511 101.836 148.932 102.079 148.932 102.678Z" fill="#419586"/>
<path d="M173.992 89.2897L150.35 102.937V100.767L173.992 87.119V89.2897Z" fill="#419586"/>
<path d="M142.753 111.328C142.753 111.927 142.331 112.656 141.813 112.956C141.295 113.256 140.874 113.013 140.874 112.413C140.874 111.814 141.295 111.085 141.813 110.785C142.331 110.486 142.753 110.729 142.753 111.328Z" fill="#419586"/>
<path d="M145.839 109.546C145.839 110.146 145.417 110.875 144.899 111.174C144.381 111.474 143.959 111.231 143.959 110.632C143.959 110.032 144.381 109.303 144.899 109.004C145.425 108.704 145.839 108.947 145.839 109.546Z" fill="#419586"/>
<path d="M148.932 107.765C148.932 108.364 148.511 109.093 147.993 109.393C147.474 109.692 147.053 109.449 147.053 108.85C147.053 108.251 147.474 107.522 147.993 107.222C148.511 106.922 148.932 107.165 148.932 107.765Z" fill="#419586"/>
<path d="M173.992 94.3762L150.35 108.024V105.853L173.992 92.2056V94.3762Z" fill="#419586"/>
<path d="M142.753 116.415C142.753 117.014 142.331 117.743 141.813 118.043C141.295 118.342 140.874 118.099 140.874 117.5C140.874 116.901 141.295 116.172 141.813 115.872C142.331 115.572 142.753 115.815 142.753 116.415Z" fill="#419586"/>
<path d="M145.839 114.633C145.839 115.232 145.417 115.961 144.899 116.261C144.381 116.56 143.959 116.317 143.959 115.718C143.959 115.119 144.381 114.39 144.899 114.09C145.425 113.79 145.839 114.033 145.839 114.633Z" fill="#419586"/>
<path d="M148.932 112.851C148.932 113.45 148.511 114.179 147.993 114.479C147.474 114.779 147.053 114.536 147.053 113.936C147.053 113.337 147.474 112.608 147.993 112.308C148.511 112.009 148.932 112.252 148.932 112.851Z" fill="#419586"/>
<path d="M173.992 99.4626L150.35 113.11V110.94L173.992 97.292V99.4626Z" fill="#419586"/>
<path d="M142.753 121.501C142.753 122.1 142.331 122.829 141.813 123.129C141.295 123.429 140.874 123.186 140.874 122.586C140.874 121.987 141.295 121.258 141.813 120.958C142.331 120.659 142.753 120.902 142.753 121.501Z" fill="#419586"/>
<path d="M145.839 119.719C145.839 120.319 145.417 121.048 144.899 121.347C144.381 121.647 143.959 121.404 143.959 120.805C143.959 120.205 144.381 119.476 144.899 119.177C145.425 118.877 145.839 119.12 145.839 119.719Z" fill="#419586"/>
<path d="M148.932 117.929C148.932 118.529 148.511 119.258 147.993 119.557C147.474 119.857 147.053 119.614 147.053 119.015C147.053 118.415 147.474 117.686 147.993 117.387C148.511 117.095 148.932 117.338 148.932 117.929Z" fill="#419586"/>
<path d="M173.992 104.549L150.35 118.197V116.026L173.992 102.378V104.549Z" fill="#419586"/>
<path d="M142.753 126.588C142.753 127.187 142.331 127.916 141.813 128.216C141.295 128.515 140.874 128.272 140.874 127.673C140.874 127.073 141.295 126.345 141.813 126.045C142.331 125.745 142.753 125.988 142.753 126.588Z" fill="#419586"/>
<path d="M145.839 124.806C145.839 125.405 145.417 126.134 144.899 126.434C144.381 126.733 143.959 126.49 143.959 125.891C143.959 125.292 144.381 124.563 144.899 124.263C145.425 123.963 145.839 124.206 145.839 124.806Z" fill="#419586"/>
<path d="M148.932 123.016C148.932 123.615 148.511 124.344 147.993 124.644C147.474 124.943 147.053 124.7 147.053 124.101C147.053 123.502 147.474 122.773 147.993 122.473C148.511 122.182 148.932 122.424 148.932 123.016Z" fill="#419586"/>
<path d="M173.992 109.635L150.35 123.283V121.112L173.992 107.465V109.635Z" fill="#419586"/>
<path d="M142.753 131.674C142.753 132.273 142.331 133.002 141.813 133.302C141.295 133.602 140.874 133.359 140.874 132.759C140.874 132.16 141.295 131.431 141.813 131.131C142.331 130.832 142.753 131.075 142.753 131.674Z" fill="#419586"/>
<path d="M145.839 129.892C145.839 130.492 145.417 131.221 144.899 131.52C144.381 131.82 143.959 131.577 143.959 130.978C143.959 130.378 144.381 129.649 144.899 129.35C145.425 129.05 145.839 129.293 145.839 129.892Z" fill="#419586"/>
<path d="M148.932 128.102C148.932 128.702 148.511 129.43 147.993 129.73C147.474 130.03 147.053 129.787 147.053 129.188C147.053 128.588 147.474 127.859 147.993 127.56C148.511 127.268 148.932 127.511 148.932 128.102Z" fill="#419586"/>
<path d="M173.992 114.722L150.35 128.37V126.199L173.992 112.551V114.722Z" fill="#419586"/>
<path d="M142.753 136.761C142.753 137.36 142.331 138.089 141.813 138.389C141.295 138.688 140.874 138.445 140.874 137.846C140.874 137.247 141.295 136.518 141.813 136.218C142.331 135.918 142.753 136.161 142.753 136.761Z" fill="#419586"/>
<path d="M145.839 134.971C145.839 135.57 145.417 136.299 144.899 136.599C144.381 136.898 143.959 136.655 143.959 136.056C143.959 135.457 144.381 134.728 144.899 134.428C145.425 134.136 145.839 134.379 145.839 134.971Z" fill="#419586"/>
<path d="M148.932 133.189C148.932 133.788 148.511 134.517 147.993 134.817C147.474 135.117 147.053 134.874 147.053 134.274C147.053 133.675 147.474 132.946 147.993 132.646C148.511 132.355 148.932 132.598 148.932 133.189Z" fill="#419586"/>
<path d="M173.992 119.808L150.35 133.456V131.285L173.992 117.638V119.808Z" fill="#419586"/>
<path d="M145.839 140.057C145.839 140.656 145.417 141.385 144.899 141.685C144.381 141.985 143.959 141.742 143.959 141.142C143.959 140.543 144.381 139.814 144.899 139.514C145.425 139.223 145.839 139.466 145.839 140.057Z" fill="#419586"/>
<path d="M148.932 138.275C148.932 138.875 148.511 139.604 147.993 139.903C147.474 140.203 147.053 139.96 147.053 139.361C147.053 138.761 147.474 138.032 147.993 137.733C148.511 137.441 148.932 137.676 148.932 138.275Z" fill="#419586"/>
<path d="M173.992 124.895L150.35 138.542V136.372L173.992 122.724V124.895Z" fill="#419586"/>
<path d="M173.992 129.981L150.35 143.629V141.458L173.992 127.81V129.981Z" fill="#419586"/>
<path d="M173.992 135.059L150.35 148.715V146.544L173.992 132.897V135.059Z" fill="#419586"/>
<path d="M173.992 140.146L150.35 153.802V151.631L173.992 137.983V140.146Z" fill="#419586"/>
<path opacity="0.5" d="M190.102 130.937L176.22 138.956V80.9554L190.102 72.9451V130.937Z" fill="#419586"/>
</g>
<path opacity="0.4" d="M81.8125 104.662L137.456 136.461L193.245 104.662V108.485L137.456 140.697L81.8125 108.566V104.662Z" fill="#419586"/>
<defs>
<linearGradient id="paint0_linear_425_7851" x1="247.127" y1="107.33" x2="86.8871" y2="74.3721" gradientUnits="userSpaceOnUse">
<stop stop-color="#180D5B"/>
<stop offset="0.095" stop-color="#1A1660"/>
<stop offset="0.2466" stop-color="#1E2D6E"/>
<stop offset="0.436" stop-color="#255385"/>
<stop offset="0.6555" stop-color="#2F87A5"/>
<stop offset="0.8978" stop-color="#3CCACE"/>
<stop offset="1" stop-color="#42E8E0"/>
</linearGradient>
<linearGradient id="paint1_linear_425_7851" x1="198.352" y1="147.645" x2="89.4985" y2="76.9444" gradientUnits="userSpaceOnUse">
<stop stop-color="#180D5B"/>
<stop offset="0.095" stop-color="#1A1660"/>
<stop offset="0.2466" stop-color="#1E2D6E"/>
<stop offset="0.436" stop-color="#255385"/>
<stop offset="0.6555" stop-color="#2F87A5"/>
<stop offset="0.8978" stop-color="#3CCACE"/>
<stop offset="1" stop-color="#42E8E0"/>
</linearGradient>
<linearGradient id="paint2_linear_425_7851" x1="211.28" y1="175.044" x2="96.7594" y2="112.239" gradientUnits="userSpaceOnUse">
<stop stop-color="#180D5B"/>
<stop offset="0.095" stop-color="#1A1660"/>
<stop offset="0.2466" stop-color="#1E2D6E"/>
<stop offset="0.436" stop-color="#255385"/>
<stop offset="0.6555" stop-color="#2F87A5"/>
<stop offset="0.8978" stop-color="#3CCACE"/>
<stop offset="1" stop-color="#42E8E0"/>
</linearGradient>
<linearGradient id="paint3_linear_425_7851" x1="119.011" y1="155.308" x2="198.657" y2="155.308" gradientUnits="userSpaceOnUse">
<stop stop-color="#2B237C"/>
<stop offset="1" stop-color="#180D5B"/>
</linearGradient>
<linearGradient id="paint4_linear_425_7851" x1="143.359" y1="174.457" x2="70.8195" y2="133.22" gradientUnits="userSpaceOnUse">
<stop stop-color="#180D5B"/>
<stop offset="0.0951" stop-color="#1A1560"/>
<stop offset="0.2465" stop-color="#1E2D6E"/>
<stop offset="0.2819" stop-color="#1F3372"/>
<stop offset="0.3779" stop-color="#22447C"/>
<stop offset="0.5681" stop-color="#2B7097"/>
<stop offset="0.832" stop-color="#39B7C2"/>
<stop offset="1" stop-color="#42E8E0"/>
</linearGradient>
</defs>
</svg>
