<svg width="41" height="41" viewBox="0 0 41 41" fill="none" xmlns="http://www.w3.org/2000/svg">
<path fill-rule="evenodd" clip-rule="evenodd" d="M20.7112 0.873535C9.55346 0.873535 0.504883 9.91973 0.504883 21.0799C0.504883 30.0074 6.29441 37.5817 14.3233 40.2533C15.333 40.4404 15.7039 39.8149 15.7039 39.281C15.7039 38.7995 15.6849 37.2075 15.6764 35.5195C10.0545 36.7415 8.86859 33.1353 8.86859 33.1353C7.94958 30.7996 6.62497 30.1783 6.62497 30.1783C4.7917 28.9245 6.7627 28.9501 6.7627 28.9501C8.79213 29.0926 9.86074 31.0327 9.86074 31.0327C11.6627 34.1218 14.5878 33.2284 15.7405 32.7121C15.9224 31.4061 16.4458 30.5141 17.0238 30.0097C12.5356 29.4992 7.81755 27.7661 7.81755 20.0236C7.81755 17.8175 8.6069 16.0151 9.89969 14.5998C9.68976 14.0907 8.99825 12.0351 10.0954 9.25197C10.0954 9.25197 11.7919 8.70958 15.6522 11.3241C17.2646 10.8763 18.9934 10.6516 20.7103 10.644C22.4277 10.6521 24.1574 10.8767 25.7722 11.3241C29.6287 8.71006 31.3233 9.25244 31.3233 9.25244C32.4233 12.0356 31.7318 14.0907 31.5218 14.6003C32.8175 16.0146 33.6011 17.8175 33.6011 20.0241C33.6011 27.7846 28.874 29.4935 24.3745 29.9931C25.0992 30.62 25.7451 31.8501 25.7451 33.7356C25.7451 36.439 25.7223 38.6147 25.7223 39.2801C25.7223 39.8168 26.0861 40.4475 27.1101 40.249C35.1347 37.5741 40.9166 30.0026 40.9166 21.078C40.9176 9.92021 31.8709 0.873535 20.7112 0.873535Z" fill="#192533"/>
<path d="M8.15884 29.8849C8.11372 29.9856 7.95557 30.0155 7.81214 29.9466C7.6649 29.8801 7.58321 29.7438 7.63071 29.6427C7.67345 29.5401 7.83208 29.5111 7.97884 29.58C8.12607 29.6465 8.20919 29.7842 8.15884 29.8849ZM8.97716 30.7987C8.88075 30.8875 8.6922 30.8462 8.56397 30.7046C8.43193 30.5636 8.40724 30.375 8.50507 30.2848C8.60386 30.1955 8.78671 30.2373 8.91827 30.3783C9.05126 30.5208 9.07738 30.7075 8.97669 30.7982L8.97716 30.7987ZM9.77364 31.9613C9.65016 32.0478 9.44736 31.967 9.32245 31.787C9.19801 31.608 9.19801 31.3928 9.32482 31.3059C9.45021 31.2195 9.64968 31.2974 9.77602 31.4755C9.90045 31.6583 9.90045 31.8739 9.77364 31.9613ZM10.8651 33.086C10.7544 33.208 10.5183 33.1753 10.3459 33.0086C10.1693 32.8457 10.1203 32.6144 10.231 32.4923C10.3436 32.3702 10.5806 32.4044 10.7544 32.5697C10.9301 32.7322 10.9833 32.9644 10.8651 33.086ZM12.3716 33.7385C12.3222 33.8972 12.0952 33.9689 11.8662 33.9019C11.6373 33.8326 11.4882 33.6474 11.5338 33.4878C11.5813 33.3282 11.8102 33.2536 12.0405 33.3253C12.2685 33.3937 12.4186 33.5771 12.3716 33.7385ZM14.0244 33.8597C14.0305 34.0259 13.8363 34.1646 13.596 34.1674C13.3547 34.1731 13.159 34.0382 13.1562 33.8739C13.1562 33.7058 13.3461 33.569 13.5874 33.5652C13.8277 33.5604 14.0244 33.6944 14.0244 33.8597ZM15.5632 33.598C15.5917 33.7604 15.4254 33.9276 15.1865 33.9717C14.9519 34.0154 14.7353 33.9148 14.705 33.7533C14.6765 33.587 14.846 33.4208 15.0802 33.3771C15.3191 33.3353 15.5328 33.4327 15.5632 33.598Z" fill="#192533"/>
</svg>
