<svg width="269" height="184" viewBox="0 0 269 184" fill="none" xmlns="http://www.w3.org/2000/svg">
<path d="M41.7393 98.4868C40.6892 98.4868 39.6611 98.215 38.7578 97.6936L4.46273 77.895C3.92664 77.5866 3.60352 77.0285 3.60352 76.4043C3.60352 75.7801 3.92664 75.2219 4.46273 74.9135L66.517 39.0836C66.6198 39.0249 66.7519 39.0249 66.8621 39.0836L67.1485 39.2525L103.962 60.5052C104.499 60.8136 104.822 61.3717 104.822 61.9959C104.822 62.6202 104.499 63.1783 103.962 63.4867L44.7135 97.6936C43.8102 98.2077 42.7821 98.4868 41.7393 98.4868ZM66.6859 39.7739L4.80054 75.501C4.47741 75.6846 4.28648 76.0224 4.28648 76.3969C4.28648 76.7715 4.47741 77.1093 4.80054 77.2929L39.0956 97.0915C40.6892 98.0094 42.7674 98.0094 44.361 97.0915L103.61 62.8845C103.933 62.7009 104.124 62.3631 104.124 61.9886C104.124 61.6141 103.933 61.2763 103.61 61.0927L66.6859 39.7739Z" fill="#419586"/>
<path d="M108.412 50.8774L104.814 52.7574L68.7124 31.916C68.1102 31.5709 67.0527 31.6076 66.355 32.0115L4.09521 67.9589C3.50037 67.6284 0.783203 66.3212 0.783203 66.3212L2.09772 69.7581C2.09772 69.7581 2.10506 69.7581 2.10506 69.7507C2.15647 69.9049 2.27397 70.0445 2.47225 70.162L40.4906 92.1123C41.0927 92.4574 42.1502 92.4207 42.8479 92.0168L106.562 55.2322C106.848 55.0633 107.024 54.8651 107.098 54.6668H107.105L108.412 50.8774Z" fill="#55759A"/>
<path d="M107.854 51.4649L42.5541 89.1675C41.8417 89.5787 40.7549 89.6228 40.138 89.2703L1.17233 66.7765C0.555464 66.4167 0.6289 65.7925 1.34858 65.3812L66.6487 27.6787C67.3611 27.2675 68.4479 27.2234 69.0648 27.5759L108.03 50.0696C108.647 50.4295 108.567 51.0537 107.854 51.4649Z" fill="#344E6C"/>
<path d="M107.854 51.0906L42.5542 88.7931C41.8418 89.2044 40.755 89.2484 40.1381 88.8959L1.17244 66.4022C0.966814 66.2847 0.849312 66.1378 0.790562 65.9836C0.695094 66.2773 0.812597 66.5711 1.17244 66.784L40.1381 89.2778C40.755 89.6376 41.8418 89.5936 42.5542 89.175L107.854 51.4724C108.332 51.1934 108.523 50.8262 108.405 50.4957C108.332 50.7087 108.155 50.9217 107.854 51.0906Z" fill="#EDE7D9"/>
<path d="M22.8584 81.016V80.2963C22.8584 80.2303 22.9025 80.2009 22.9539 80.2303L25.4801 81.6917C25.5315 81.721 25.5756 81.8018 25.5756 81.8679V82.5876C25.5756 82.6537 25.5315 82.6904 25.4801 82.6537L22.9539 81.1923C22.9025 81.1629 22.8584 81.0821 22.8584 81.016Z" fill="#010101"/>
<path d="M26.6406 83.1971V82.4774C26.6406 82.4113 26.6847 82.3819 26.7361 82.4113L29.2623 83.8727C29.3137 83.9021 29.3578 83.9828 29.3578 84.0489V84.7686C29.3578 84.8347 29.3137 84.8641 29.2623 84.8347L26.7361 83.3733C26.6773 83.3366 26.6406 83.2632 26.6406 83.1971Z" fill="#010101"/>
<path d="M23.1448 71.8884L77.4074 40.5602C77.7673 40.3546 78.2152 40.3546 78.5751 40.5602L97.8963 51.7373C98.1754 51.8989 98.1754 52.2955 97.8963 52.457L43.6558 83.7705C43.2959 83.9762 42.848 83.9762 42.4881 83.7705L23.1448 72.6081C22.8658 72.4465 22.8658 72.05 23.1448 71.8884Z" fill="#70B8A1"/>
<path d="M23.1448 72.6076L23.3358 72.7177L77.4001 41.4997C77.7599 41.2941 78.2079 41.2941 78.5677 41.4997L97.698 52.5666L97.889 52.4565C98.168 52.2949 98.168 51.8984 97.889 51.7368L78.5677 40.5597C78.2079 40.3541 77.7599 40.3467 77.4001 40.5597L23.1448 71.8879C22.8658 72.0495 22.8658 72.446 23.1448 72.6076Z" fill="#192533"/>
<path d="M80.0366 43.387L30.0554 72.2477L27.5732 71.2563L77.9363 42.1826L80.0366 43.387Z" fill="#192533"/>
<path d="M85.1702 46.3539L40.9611 71.8806L38.8682 70.6689L83.0772 45.1422L85.1702 46.3539Z" fill="#192533"/>
<path d="M88.5191 48.2854L36.467 78.3432L34.374 77.1315L86.4261 47.0811L88.5191 48.2854Z" fill="#192533"/>
<path d="M91.8673 50.2167L39.8151 80.2744L37.7148 79.0627L89.767 49.0123L91.8673 50.2167Z" fill="#192533"/>
<path d="M95.2085 52.1554L43.1564 82.2058L41.0635 80.9941L93.1156 50.9437L95.2085 52.1554Z" fill="#192533"/>
<path d="M30.0556 72.2478L27.9553 73.4596L25.8623 72.2478L27.9553 71.0361L30.0556 72.2478Z" fill="#192533"/>
<path d="M43.5014 70.4118L33.0954 76.4263L30.9951 75.2146L41.4819 69.156L43.5014 70.4118Z" fill="#192533"/>
<path d="M42.4655 57.8469L57.0942 49.4016C57.667 49.0711 57.667 48.535 57.0942 48.2046L47.0921 42.4251C46.5193 42.0946 45.5939 42.0946 45.0211 42.4251L30.3925 50.8703C29.8197 51.2008 29.8197 51.7369 30.3925 52.0674L40.3946 57.8469C40.9601 58.1773 41.8927 58.1773 42.4655 57.8469Z" fill="#344E6C"/>
<path d="M30.3853 51.3622L45.0139 42.917C45.5867 42.5865 46.512 42.5865 47.0849 42.917L57.087 48.6965C57.2632 48.7993 57.3807 48.9241 57.4468 49.049C57.601 48.7626 57.4835 48.4321 57.087 48.2045L47.0849 42.425C46.512 42.0945 45.5867 42.0945 45.0139 42.425L30.3853 50.8702C29.9887 51.0979 29.8712 51.421 30.0254 51.7147C30.0915 51.5899 30.209 51.4651 30.3853 51.3622Z" fill="#192533"/>
<path d="M108.309 49.9082L100.055 0.940413L100.716 0.661354L99.717 0.0885468V0.0958921C99.5261 -0.0362945 99.247 -0.0216073 98.9459 0.147298L32.9775 38.2317C32.4341 38.5475 32.0228 39.3479 32.1183 39.9061L40.4387 89.2704C40.4828 89.5274 40.6076 89.6963 40.7839 89.7698L41.7606 90.3352L41.9295 89.4246L41.8707 89.4393L107.443 51.5825C107.993 51.2741 108.405 50.4663 108.309 49.9082Z" fill="#344E6C"/>
<path d="M33.3523 39.5682L32.2654 39.0908C32.1406 39.3699 32.0818 39.6636 32.1259 39.906L40.4463 89.2703C40.4903 89.5273 40.6152 89.6962 40.7914 89.7697L41.7681 90.3351L41.9371 89.4245L41.8783 89.4392L45.1977 87.5225L33.3523 39.5682Z" fill="#55759A"/>
<path d="M108.486 52.1774L42.5172 90.2618C42.0104 90.5556 41.5698 90.3867 41.4817 89.8579L33.1613 40.4936C33.0658 39.9355 33.4771 39.1277 34.0205 38.8193L99.9889 0.734848C100.496 0.4411 100.936 0.610007 101.024 1.13875L109.345 50.5031C109.44 51.0612 109.029 51.8617 108.486 52.1774Z" fill="#2A3A4D"/>
<path d="M227.799 98.4868C226.749 98.4868 225.72 98.215 224.817 97.6936L165.568 63.4867C165.032 63.1783 164.709 62.6202 164.709 61.9959C164.709 61.3717 165.032 60.8136 165.568 60.5052L202.669 39.0836C202.779 39.0249 202.904 39.0249 203.014 39.0836L265.068 74.9135C265.604 75.2219 265.927 75.7801 265.927 76.4043C265.927 77.0285 265.604 77.5866 265.068 77.895L230.773 97.6936C229.877 98.2077 228.849 98.4868 227.799 98.4868ZM225.17 97.0915C226.763 98.0094 228.841 98.0094 230.435 97.0915L264.73 77.2929C265.053 77.1093 265.244 76.7715 265.244 76.3969C265.244 76.0224 265.053 75.6846 264.73 75.501L202.845 39.7739L202.727 39.84L165.913 61.0927C165.59 61.2763 165.399 61.6141 165.399 61.9886C165.399 62.3631 165.59 62.6936 165.913 62.8845L225.17 97.0915Z" fill="#419586"/>
<path d="M161.125 50.8774L164.723 52.7574L200.825 31.916C201.427 31.5709 202.485 31.6076 203.182 32.0115L265.442 67.9589C266.037 67.6284 268.754 66.3212 268.754 66.3212L267.44 69.7581C267.44 69.7581 267.432 69.7581 267.432 69.7507C267.381 69.9049 267.263 70.0445 267.065 70.162L229.047 92.1123C228.445 92.4574 227.387 92.4207 226.69 92.0168L162.976 55.2322C162.689 55.0633 162.513 54.8651 162.44 54.6668H162.432L161.125 50.8774Z" fill="#55759A"/>
<path d="M161.683 51.4649L226.983 89.1675C227.696 89.5787 228.782 89.6228 229.399 89.2703L268.365 66.7765C268.982 66.4167 268.908 65.7925 268.189 65.3812L202.889 27.6787C202.176 27.2675 201.089 27.2234 200.472 27.5759L161.507 50.0696C160.89 50.4295 160.971 51.0537 161.683 51.4649Z" fill="#344E6C"/>
<path d="M161.683 51.0906L226.983 88.7931C227.696 89.2044 228.782 89.2484 229.399 88.8959L268.365 66.4022C268.571 66.2847 268.688 66.1378 268.747 65.9836C268.842 66.2773 268.725 66.5711 268.365 66.784L229.399 89.2778C228.782 89.6376 227.696 89.5936 226.983 89.175L161.683 51.4724C161.206 51.1934 161.015 50.8262 161.132 50.4957C161.206 50.7087 161.382 50.9217 161.683 51.0906Z" fill="#EDE7D9"/>
<path d="M246.679 81.016V80.2963C246.679 80.2303 246.635 80.2009 246.584 80.2303L244.057 81.6917C244.006 81.721 243.962 81.8018 243.962 81.8679V82.5876C243.962 82.6537 244.006 82.6904 244.057 82.6537L246.584 81.1923C246.635 81.1629 246.679 81.0821 246.679 81.016Z" fill="#010101"/>
<path d="M242.897 83.1971V82.4774C242.897 82.4113 242.853 82.3819 242.801 82.4113L240.275 83.8727C240.224 83.9021 240.18 83.9828 240.18 84.0489V84.7686C240.18 84.8347 240.224 84.8641 240.275 84.8347L242.801 83.3733C242.86 83.3366 242.897 83.2632 242.897 83.1971Z" fill="#010101"/>
<path d="M246.392 71.8884L192.13 40.5602C191.77 40.3546 191.322 40.3546 190.962 40.5602L171.641 51.7373C171.362 51.8989 171.362 52.2955 171.641 52.457L225.881 83.7705C226.241 83.9762 226.689 83.9762 227.049 83.7705L246.4 72.6081C246.671 72.4465 246.671 72.05 246.392 71.8884Z" fill="#70B8A1"/>
<path d="M246.393 72.6077L246.202 72.7179L192.138 41.4998C191.778 41.2942 191.33 41.2942 190.97 41.4998L171.84 52.5668L171.649 52.4566C171.37 52.295 171.37 51.8985 171.649 51.7369L190.97 40.5598C191.33 40.3542 191.778 40.3468 192.138 40.5598L246.393 71.888C246.672 72.0496 246.672 72.4461 246.393 72.6077Z" fill="#192533"/>
<path d="M189.501 43.387L239.482 72.2477L241.964 71.2563L191.601 42.1826L189.501 43.387Z" fill="#192533"/>
<path d="M184.368 46.3539L228.577 71.8806L230.67 70.6689L186.461 45.1422L184.368 46.3539Z" fill="#192533"/>
<path d="M181.02 48.2854L233.072 78.3432L235.165 77.1315L183.112 47.0811L181.02 48.2854Z" fill="#192533"/>
<path d="M177.671 50.2167L229.723 80.2744L231.823 79.0627L179.771 49.0123L177.671 50.2167Z" fill="#192533"/>
<path d="M174.329 52.1554L226.381 82.2058L228.474 80.9941L176.422 50.9437L174.329 52.1554Z" fill="#192533"/>
<path d="M239.482 72.2478L241.583 73.4596L243.676 72.2478L241.583 71.0361L239.482 72.2478Z" fill="#192533"/>
<path d="M226.036 70.4118L236.442 76.4263L238.542 75.2146L228.056 69.156L226.036 70.4118Z" fill="#192533"/>
<path d="M227.071 57.8467L212.442 49.4015C211.869 49.071 211.869 48.5349 212.442 48.2045L222.444 42.425C223.017 42.0945 223.943 42.0945 224.515 42.425L239.144 50.8702C239.717 51.2007 239.717 51.7368 239.144 52.0672L229.142 57.8467C228.576 58.1772 227.644 58.1772 227.071 57.8467Z" fill="#344E6C"/>
<path d="M239.151 51.3624L224.523 42.9171C223.95 42.5867 223.025 42.5867 222.452 42.9171L212.45 48.6966C212.273 48.7994 212.156 48.9243 212.09 49.0491C211.936 48.7627 212.053 48.4322 212.45 48.2046L222.452 42.4251C223.025 42.0946 223.95 42.0946 224.523 42.4251L239.151 50.8703C239.548 51.098 239.665 51.4211 239.511 51.7149C239.445 51.59 239.328 51.4652 239.151 51.3624Z" fill="#192533"/>
<path d="M161.228 49.9082L169.482 0.933094L168.821 0.65403L169.82 0.0812226V0.0885678C170.011 -0.0436187 170.29 -0.0289315 170.591 0.139973L236.559 38.2244C237.103 38.5402 237.514 39.3406 237.419 39.8987L229.098 89.2631C229.054 89.5201 228.929 89.689 228.753 89.7624L227.776 90.3279L227.607 89.4173L227.666 89.432L162.094 51.5752C161.543 51.2741 161.132 50.4663 161.228 49.9082Z" fill="#344E6C"/>
<path d="M236.185 39.5682L237.272 39.0908C237.397 39.3699 237.456 39.6636 237.412 39.906L229.091 89.2703C229.047 89.5273 228.922 89.6962 228.746 89.7697L227.769 90.3351L227.6 89.4245L227.659 89.4392L224.34 87.5225L236.185 39.5682Z" fill="#55759A"/>
<path d="M161.052 52.1774L227.02 90.2618C227.527 90.5556 227.967 90.3867 228.056 89.8579L236.376 40.4936C236.471 39.9355 236.06 39.1277 235.517 38.8193L169.548 0.734848C169.042 0.4411 168.601 0.610007 168.513 1.13875L160.193 50.5031C160.097 51.0612 160.508 51.8617 161.052 52.1774Z" fill="#2A3A4D"/>
<path d="M134.768 110.296L73.3457 74.8328L134.768 39.3701L196.191 74.8328L134.768 110.296Z" fill="#55759A"/>
<path d="M134.769 100.609L90.1191 74.8328L134.769 49.0491L179.418 74.8328L134.769 100.609Z" fill="#2A3A4D"/>
<path d="M134.769 50.7969L177.906 75.7067L179.418 74.8328L134.769 49.0491L90.1191 74.8328L91.6319 75.7067L134.769 50.7969Z" fill="#EDE7D9"/>
<path d="M196.191 74.833V94.9327L134.769 130.395V110.296L196.191 74.833Z" fill="#344E6C"/>
<path d="M73.3457 74.833V94.9327L134.768 130.395V110.296L73.3457 74.833Z" fill="#192533"/>
<g opacity="0.51">
<path d="M77.502 83.8658V90.1961L130.612 120.849V114.518L77.502 83.8658Z" fill="#2A3A4D"/>
</g>
<path d="M134.768 109.142L74.3444 74.2526L73.3457 74.8327L134.768 110.295L196.191 74.8327L195.192 74.2526L134.768 109.142Z" fill="#EDE7D9"/>
<path d="M186.982 88.9181V92.5165L143.984 117.338V113.74L186.982 88.9181Z" fill="#2A3A4D"/>
<path opacity="0.51" d="M73.3457 74.833V94.9327L134.768 130.395V110.296L73.3457 74.833Z" fill="#2A3A4D"/>
<path d="M116.835 109.223L105.717 102.805V104.127L116.835 110.553V109.223Z" fill="#419586"/>
<path d="M104.109 101.894L101.098 100.154V101.476L104.109 103.216V101.894Z" fill="#419586"/>
<path d="M89.9939 93.7428L83.8252 90.1812V91.5104L89.9939 95.0721V93.7428Z" fill="#419586"/>
<path d="M95.6188 96.9886L91.1611 94.4183V95.7402L95.6188 98.3178V96.9886Z" fill="#419586"/>
<path d="M99.8054 99.4049L96.7871 97.6644V98.9936L99.798 100.734L99.8054 99.4049Z" fill="#419586"/>
<path d="M134.834 57.9055L132.881 56.7746L134.834 55.651L136.78 56.7746L134.834 57.9055Z" fill="#419586"/>
<path opacity="0.1" d="M138.734 60.1528L136.78 59.0292L138.734 57.9056L140.68 59.0292L138.734 60.1528Z" fill="#419586"/>
<path opacity="0.4" d="M142.633 62.4073L140.68 61.2838L142.633 60.1528L144.587 61.2838L142.633 62.4073Z" fill="#419586"/>
<path d="M146.533 64.6617L144.587 63.5308L146.533 62.4072L148.486 63.5308L146.533 64.6617Z" fill="#419586"/>
<path opacity="0.4" d="M150.432 66.9089L148.486 65.7853L150.432 64.6617L152.386 65.7853L150.432 66.9089Z" fill="#419586"/>
<path d="M154.339 69.1635L152.386 68.0399L154.339 66.9089L156.285 68.0399L154.339 69.1635Z" fill="#419586"/>
<path d="M158.239 71.4178L156.285 70.2869L158.239 69.1633L160.185 70.2869L158.239 71.4178Z" fill="#419586"/>
<path d="M162.138 73.665L160.185 72.5414L162.138 71.4178L164.091 72.5414L162.138 73.665Z" fill="#419586"/>
<path opacity="0.1" d="M166.038 75.9197L164.092 74.7961L166.038 73.6652L167.991 74.7961L166.038 75.9197Z" fill="#419586"/>
<path d="M130.912 60.1676L128.966 59.0367L130.912 57.9131L132.865 59.0367L130.912 60.1676Z" fill="#419586"/>
<path d="M134.811 62.4149L132.865 61.2913L134.811 60.1677L136.765 61.2913L134.811 62.4149Z" fill="#419586"/>
<path d="M138.718 64.6695L136.765 63.546L138.718 62.415L140.664 63.546L138.718 64.6695Z" fill="#419586"/>
<path d="M142.617 66.9237L140.664 65.7928L142.617 64.6692L144.564 65.7928L142.617 66.9237Z" fill="#419586"/>
<path d="M146.517 69.171L144.563 68.0474L146.517 66.9238L148.47 68.0474L146.517 69.171Z" fill="#419586"/>
<path d="M150.417 71.4255L148.471 70.3019L150.417 69.171L152.37 70.3019L150.417 71.4255Z" fill="#419586"/>
<path d="M154.316 73.6798L152.37 72.5489L154.316 71.4253L156.27 72.5489L154.316 73.6798Z" fill="#419586"/>
<path d="M158.223 75.9271L156.27 74.8035L158.223 73.6799L160.169 74.8035L158.223 75.9271Z" fill="#419586"/>
<path d="M162.122 78.1816L160.169 77.0581L162.122 75.9271L164.068 77.0581L162.122 78.1816Z" fill="#419586"/>
<path d="M126.998 62.4292L125.045 61.2983L126.998 60.1747L128.944 61.2983L126.998 62.4292Z" fill="#419586"/>
<path d="M130.898 64.6766L128.952 63.553L130.898 62.4294L132.852 63.553L130.898 64.6766Z" fill="#419586"/>
<path d="M134.798 66.9308L132.852 65.8072L134.798 64.6763L136.751 65.8072L134.798 66.9308Z" fill="#419586"/>
<path opacity="0.1" d="M138.704 69.1854L136.751 68.0545L138.697 66.9309L140.65 68.0545L138.704 69.1854Z" fill="#419586"/>
<path opacity="0.4" d="M142.604 71.4326L140.65 70.309L142.604 69.1854L144.55 70.309L142.604 71.4326Z" fill="#419586"/>
<path opacity="0.4" d="M146.503 73.6872L144.55 72.5637L146.503 71.4327L148.449 72.5637L146.503 73.6872Z" fill="#419586"/>
<path d="M150.403 75.9418L148.457 74.8108L150.403 73.6873L152.357 74.8108L150.403 75.9418Z" fill="#419586"/>
<path d="M154.303 78.1888L152.356 77.0652L154.303 75.9417L156.256 77.0652L154.303 78.1888Z" fill="#419586"/>
<path d="M158.202 80.4434L156.256 79.3198L158.202 78.1888L160.155 79.3198L158.202 80.4434Z" fill="#419586"/>
<path opacity="0.4" d="M123.084 64.6838L121.131 63.5602L123.084 62.4366L125.03 63.5602L123.084 64.6838Z" fill="#419586"/>
<path opacity="0.4" d="M126.984 66.9382L125.03 65.8146L126.984 64.6837L128.93 65.8146L126.984 66.9382Z" fill="#419586"/>
<path opacity="0.1" d="M130.883 69.1926L128.93 68.0617L130.883 66.9381L132.837 68.0617L130.883 69.1926Z" fill="#419586"/>
<path d="M134.783 71.4471L132.837 70.3162L134.783 69.1926L136.736 70.3162L134.783 71.4471Z" fill="#419586"/>
<path d="M138.682 73.6944L136.736 72.5709L138.682 71.4473L140.636 72.5709L138.682 73.6944Z" fill="#419586"/>
<path d="M142.589 75.949L140.636 74.8254L142.589 73.6945L144.535 74.8254L142.589 75.949Z" fill="#419586"/>
<path opacity="0.4" d="M146.489 78.2033L144.535 77.0723L146.489 75.9487L148.435 77.0723L146.489 78.2033Z" fill="#419586"/>
<path d="M150.388 80.4505L148.435 79.327L150.388 78.2034L152.341 79.327L150.388 80.4505Z" fill="#419586"/>
<path d="M154.288 82.7049L152.342 81.5814L154.288 80.4504L156.241 81.5814L154.288 82.7049Z" fill="#419586"/>
<path d="M119.163 66.9457L117.217 65.8221L119.163 64.6985L121.116 65.8221L119.163 66.9457Z" fill="#419586"/>
<path d="M123.062 69.2002L121.116 68.0766L123.062 66.9457L125.016 68.0766L123.062 69.2002Z" fill="#419586"/>
<path d="M126.969 71.4545L125.016 70.3235L126.969 69.2L128.915 70.3235L126.969 71.4545Z" fill="#419586"/>
<path d="M130.868 73.7018L128.915 72.5782L130.868 71.4546L132.815 72.5782L130.868 73.7018Z" fill="#419586"/>
<path d="M134.768 75.9563L132.814 74.8327L134.768 73.7018L136.721 74.8327L134.768 75.9563Z" fill="#419586"/>
<path d="M138.668 78.2109L136.722 77.08L138.668 75.9564L140.621 77.08L138.668 78.2109Z" fill="#419586"/>
<path d="M142.567 80.4652L140.621 79.3343L142.567 78.2107L144.521 79.3343L142.567 80.4652Z" fill="#419586"/>
<path d="M146.474 82.7125L144.521 81.5889L146.474 80.4653L148.42 81.5889L146.474 82.7125Z" fill="#419586"/>
<path d="M150.373 84.967L148.42 83.8434L150.373 82.7125L152.319 83.8434L150.373 84.967Z" fill="#419586"/>
<path d="M115.248 69.2074L113.295 68.0838L115.248 66.9602L117.194 68.0838L115.248 69.2074Z" fill="#419586"/>
<path d="M119.148 71.4618L117.194 70.3382L119.148 69.2073L121.101 70.3382L119.148 71.4618Z" fill="#419586"/>
<path opacity="0.4" d="M123.048 73.7162L121.102 72.5853L123.048 71.4617L125.001 72.5853L123.048 73.7162Z" fill="#419586"/>
<path d="M126.947 75.9634L125.001 74.8398L126.947 73.7162L128.9 74.8398L126.947 75.9634Z" fill="#419586"/>
<path opacity="0.1" d="M130.854 78.218L128.9 77.0944L130.854 75.9635L132.8 77.0944L130.854 78.218Z" fill="#419586"/>
<path d="M134.753 80.4725L132.8 79.3416L134.753 78.218L136.699 79.3416L134.753 80.4725Z" fill="#419586"/>
<path d="M138.653 82.7198L136.699 81.5962L138.653 80.4727L140.606 81.5962L138.653 82.7198Z" fill="#419586"/>
<path d="M142.553 84.9744L140.606 83.8508L142.553 82.7198L144.506 83.8508L142.553 84.9744Z" fill="#419586"/>
<path d="M146.452 87.2288L144.506 86.0978L146.452 84.9742L148.405 86.0978L146.452 87.2288Z" fill="#419586"/>
<path d="M111.334 71.4693L109.381 70.3458L111.327 69.2222L113.28 70.3458L111.334 71.4693Z" fill="#419586"/>
<path d="M115.234 73.724L113.28 72.6004L115.234 71.4695L117.18 72.6004L115.234 73.724Z" fill="#419586"/>
<path opacity="0.4" d="M119.133 75.9785L117.18 74.8476L119.133 73.724L121.079 74.8476L119.133 75.9785Z" fill="#419586"/>
<path d="M123.033 78.2254L121.079 77.1019L123.033 75.9783L124.986 77.1019L123.033 78.2254Z" fill="#419586"/>
<path d="M126.932 80.48L124.986 79.3564L126.932 78.2255L128.886 79.3564L126.932 80.48Z" fill="#419586"/>
<path opacity="0.1" d="M130.832 82.7346L128.886 81.6037L130.832 80.4801L132.785 81.6037L130.832 82.7346Z" fill="#419586"/>
<path opacity="0.4" d="M134.739 84.9815L132.785 83.858L134.739 82.7344L136.685 83.858L134.739 84.9815Z" fill="#419586"/>
<path d="M138.638 87.2362L136.685 86.1126L138.638 84.9817L140.584 86.1126L138.638 87.2362Z" fill="#419586"/>
<path opacity="0.1" d="M142.537 89.4907L140.584 88.3598L142.537 87.2362L144.491 88.3598L142.537 89.4907Z" fill="#419586"/>
<path d="M107.413 73.7313L105.467 72.6077L107.413 71.4768L109.366 72.6077L107.413 73.7313Z" fill="#419586"/>
<path opacity="0.4" d="M111.312 75.9858L109.366 74.8549L111.312 73.7313L113.266 74.8549L111.312 75.9858Z" fill="#419586"/>
<path d="M115.219 78.2402L113.266 77.1093L115.219 75.9857L117.165 77.1093L115.219 78.2402Z" fill="#419586"/>
<path d="M119.119 80.4874L117.166 79.3638L119.119 78.2402L121.066 79.3638L119.119 80.4874Z" fill="#419586"/>
<path d="M123.018 82.7421L121.064 81.6185L123.018 80.4875L124.971 81.6185L123.018 82.7421Z" fill="#419586"/>
<path d="M126.918 84.9966L124.972 83.8656L126.918 82.7421L128.871 83.8656L126.918 84.9966Z" fill="#419586"/>
<path d="M130.817 87.2436L128.871 86.12L130.817 84.9965L132.771 86.12L130.817 87.2436Z" fill="#419586"/>
<path opacity="0.4" d="M134.724 89.498L132.771 88.3745L134.724 87.2435L136.67 88.3745L134.724 89.498Z" fill="#419586"/>
<path d="M138.623 91.7527L136.67 90.6218L138.623 89.4982L140.569 90.6218L138.623 91.7527Z" fill="#419586"/>
<path d="M103.498 75.9932L101.545 74.8696L103.498 73.7386L105.444 74.8696L103.498 75.9932Z" fill="#419586"/>
<path opacity="0.1" d="M107.398 78.2478L105.444 77.1169L107.398 75.9933L109.351 77.1169L107.398 78.2478Z" fill="#419586"/>
<path d="M111.298 80.4947L109.352 79.3711L111.298 78.2476L113.251 79.3711L111.298 80.4947Z" fill="#419586"/>
<path d="M115.197 82.7494L113.251 81.6258L115.197 80.4949L117.15 81.6258L115.197 82.7494Z" fill="#419586"/>
<path d="M119.104 85.0039L117.15 83.873L119.104 82.7494L121.05 83.873L119.104 85.0039Z" fill="#419586"/>
<path d="M123.003 87.2585L121.05 86.1276L123.003 85.004L124.949 86.1276L123.003 87.2585Z" fill="#419586"/>
<path opacity="0.4" d="M126.903 89.5055L124.949 88.3819L126.903 87.2583L128.856 88.3819L126.903 89.5055Z" fill="#419586"/>
<path d="M130.803 91.7601L128.856 90.6365L130.803 89.5056L132.756 90.6365L130.803 91.7601Z" fill="#419586"/>
<path d="M134.702 94.0147L132.756 92.8837L134.702 91.7601L136.655 92.8837L134.702 94.0147Z" fill="#419586"/>
<path d="M134.768 75.4862L73.3457 40.0234L134.768 4.56073L196.191 40.0234L134.768 75.4862Z" fill="#55759A"/>
<path d="M134.769 65.8072L90.1191 40.0234L134.769 14.2471L179.418 40.0234L134.769 65.8072Z" fill="#2A3A4D"/>
<path d="M134.769 15.9949L177.906 40.8973L179.418 40.0234L134.769 14.2471L90.1191 40.0234L91.6319 40.8973L134.769 15.9949Z" fill="#EDE7D9"/>
<path d="M196.191 40.0234V60.1305L134.769 95.5932V75.4861L196.191 40.0234Z" fill="#344E6C"/>
<path d="M73.3457 40.0234V60.1305L134.768 95.5932V75.4861L73.3457 40.0234Z" fill="#192533"/>
<g opacity="0.51">
<path d="M77.502 49.0562V55.3864L130.612 86.0463V79.7161L77.502 49.0562Z" fill="#2A3A4D"/>
</g>
<path d="M134.768 74.3332L74.3444 39.4507L73.3457 40.0235L134.768 75.4862L196.191 40.0235L195.192 39.4507L134.768 74.3332Z" fill="#EDE7D9"/>
<path d="M186.982 54.116V57.7144L143.984 82.5361V78.9377L186.982 54.116Z" fill="#2A3A4D"/>
<path opacity="0.51" d="M73.3457 40.0234V60.1305L134.768 95.5932V75.4861L73.3457 40.0234Z" fill="#2A3A4D"/>
<path d="M116.835 74.4213L105.717 67.9956V69.3248L116.835 75.7506V74.4213Z" fill="#419586"/>
<path d="M104.109 67.0849L101.098 65.3445V66.6737L104.109 68.4142V67.0849Z" fill="#419586"/>
<path d="M89.9939 58.9408L83.8252 55.3792V56.701L89.9939 60.2627V58.9408Z" fill="#419586"/>
<path d="M95.6188 62.187L91.1611 59.6094V60.9386L95.6188 63.5162V62.187Z" fill="#419586"/>
<path d="M99.8054 64.603L96.7871 62.8625V64.1844L99.798 65.9249L99.8054 64.603Z" fill="#419586"/>
<path d="M134.834 23.0962L132.881 21.9726L134.834 20.8491L136.78 21.9726L134.834 23.0962Z" fill="#419586"/>
<path opacity="0.1" d="M138.734 25.3507L136.78 24.2271L138.734 23.0962L140.68 24.2271L138.734 25.3507Z" fill="#419586"/>
<path opacity="0.4" d="M142.633 27.6051L140.68 26.4742L142.633 25.3506L144.587 26.4742L142.633 27.6051Z" fill="#419586"/>
<path d="M146.533 29.8523L144.587 28.7287L146.533 27.6051L148.486 28.7287L146.533 29.8523Z" fill="#419586"/>
<path opacity="0.4" d="M150.432 32.1069L148.486 30.9833L150.432 29.8524L152.386 30.9833L150.432 32.1069Z" fill="#419586"/>
<path d="M154.339 34.3614L152.386 33.2305L154.339 32.1069L156.285 33.2305L154.339 34.3614Z" fill="#419586"/>
<path d="M158.239 36.6086L156.285 35.485L158.239 34.3615L160.185 35.485L158.239 36.6086Z" fill="#419586"/>
<path d="M162.138 38.8633L160.185 37.7397L162.138 36.6088L164.091 37.7397L162.138 38.8633Z" fill="#419586"/>
<path opacity="0.1" d="M166.038 41.1178L164.092 39.9869L166.038 38.8633L167.991 39.9869L166.038 41.1178Z" fill="#419586"/>
<path d="M130.912 25.3582L128.966 24.2346L130.912 23.1036L132.865 24.2346L130.912 25.3582Z" fill="#419586"/>
<path d="M134.811 27.6125L132.865 26.4816L134.811 25.358L136.765 26.4816L134.811 27.6125Z" fill="#419586"/>
<path d="M138.718 29.8596L136.765 28.736L138.718 27.6124L140.664 28.736L138.718 29.8596Z" fill="#419586"/>
<path d="M142.617 32.1141L140.664 30.9905L142.617 29.8669L144.564 30.9905L142.617 32.1141Z" fill="#419586"/>
<path d="M146.517 34.3688L144.563 33.2452L146.517 32.1143L148.47 33.2452L146.517 34.3688Z" fill="#419586"/>
<path d="M150.417 36.6233L148.471 35.4924L150.417 34.3688L152.37 35.4924L150.417 36.6233Z" fill="#419586"/>
<path d="M154.316 38.8703L152.37 37.7468L154.316 36.6232L156.27 37.7468L154.316 38.8703Z" fill="#419586"/>
<path d="M158.223 41.1249L156.27 40.0013L158.223 38.8704L160.169 40.0013L158.223 41.1249Z" fill="#419586"/>
<path d="M162.122 43.3794L160.169 42.2485L162.122 41.1249L164.068 42.2485L162.122 43.3794Z" fill="#419586"/>
<path d="M126.998 27.6198L125.045 26.4962L126.998 25.3653L128.944 26.4962L126.998 27.6198Z" fill="#419586"/>
<path d="M130.898 29.8743L128.952 28.7433L130.898 27.6198L132.852 28.7433L130.898 29.8743Z" fill="#419586"/>
<path d="M134.798 32.1217L132.852 30.9981L134.798 29.8745L136.751 30.9981L134.798 32.1217Z" fill="#419586"/>
<path opacity="0.1" d="M138.704 34.3761L136.751 33.2525L138.697 32.1216L140.65 33.2525L138.704 34.3761Z" fill="#419586"/>
<path opacity="0.4" d="M142.604 36.6305L140.65 35.4996L142.604 34.376L144.55 35.4996L142.604 36.6305Z" fill="#419586"/>
<path opacity="0.4" d="M146.503 38.8777L144.55 37.7541L146.503 36.6305L148.449 37.7541L146.503 38.8777Z" fill="#419586"/>
<path d="M150.403 41.1323L148.457 40.0087L150.403 38.8851L152.357 40.0087L150.403 41.1323Z" fill="#419586"/>
<path d="M154.303 43.3868L152.356 42.2633L154.303 41.1323L156.256 42.2633L154.303 43.3868Z" fill="#419586"/>
<path d="M158.202 45.6414L156.256 44.5104L158.202 43.3868L160.155 44.5104L158.202 45.6414Z" fill="#419586"/>
<path opacity="0.4" d="M123.084 29.8818L121.131 28.7582L123.084 27.6273L125.03 28.7582L123.084 29.8818Z" fill="#419586"/>
<path opacity="0.4" d="M126.984 32.1364L125.03 31.0054L126.984 29.8818L128.93 31.0054L126.984 32.1364Z" fill="#419586"/>
<path opacity="0.1" d="M130.883 34.3833L128.93 33.2597L130.883 32.1361L132.837 33.2597L130.883 34.3833Z" fill="#419586"/>
<path d="M134.783 36.6378L132.837 35.5142L134.783 34.3833L136.736 35.5142L134.783 36.6378Z" fill="#419586"/>
<path d="M138.682 38.8925L136.736 37.7615L138.682 36.6379L140.636 37.7615L138.682 38.8925Z" fill="#419586"/>
<path d="M142.589 41.1397L140.636 40.0162L142.589 38.8926L144.535 40.0162L142.589 41.1397Z" fill="#419586"/>
<path opacity="0.4" d="M146.489 43.3942L144.535 42.2706L146.489 41.1396L148.435 42.2706L146.489 43.3942Z" fill="#419586"/>
<path d="M150.388 45.6489L148.435 44.518L150.388 43.3944L152.341 44.518L150.388 45.6489Z" fill="#419586"/>
<path d="M154.288 47.8961L152.342 46.7725L154.288 45.6489L156.241 46.7725L154.288 47.8961Z" fill="#419586"/>
<path d="M119.163 32.1437L117.217 31.0201L119.163 29.8892L121.116 31.0201L119.163 32.1437Z" fill="#419586"/>
<path d="M123.062 34.3983L121.116 33.2674L123.062 32.1438L125.016 33.2674L123.062 34.3983Z" fill="#419586"/>
<path d="M126.969 36.6452L125.016 35.5217L126.969 34.3981L128.915 35.5217L126.969 36.6452Z" fill="#419586"/>
<path d="M130.868 38.8999L128.915 37.7763L130.868 36.6454L132.815 37.7763L130.868 38.8999Z" fill="#419586"/>
<path d="M134.768 41.1544L132.814 40.0235L134.768 38.8999L136.721 40.0235L134.768 41.1544Z" fill="#419586"/>
<path d="M138.668 43.4017L136.722 42.2781L138.668 41.1545L140.621 42.2781L138.668 43.4017Z" fill="#419586"/>
<path d="M142.567 45.6562L140.621 44.5327L142.567 43.4017L144.521 44.5327L142.567 45.6562Z" fill="#419586"/>
<path d="M146.474 47.9105L144.521 46.7796L146.474 45.656L148.42 46.7796L146.474 47.9105Z" fill="#419586"/>
<path d="M150.373 50.1578L148.42 49.0342L150.373 47.9106L152.319 49.0342L150.373 50.1578Z" fill="#419586"/>
<path d="M115.248 34.4054L113.295 33.2818L115.248 32.1509L117.194 33.2818L115.248 34.4054Z" fill="#419586"/>
<path d="M119.148 36.6599L117.194 35.529L119.148 34.4054L121.101 35.529L119.148 36.6599Z" fill="#419586"/>
<path opacity="0.4" d="M123.048 38.9072L121.102 37.7836L123.048 36.66L125.001 37.7836L123.048 38.9072Z" fill="#419586"/>
<path d="M126.947 41.1617L125.001 40.0382L126.947 38.9072L128.9 40.0382L126.947 41.1617Z" fill="#419586"/>
<path opacity="0.1" d="M130.854 43.4161L128.9 42.2852L130.854 41.1616L132.8 42.2852L130.854 43.4161Z" fill="#419586"/>
<path d="M134.753 45.6633L132.8 44.5397L134.753 43.4161L136.699 44.5397L134.753 45.6633Z" fill="#419586"/>
<path d="M138.653 47.9178L136.699 46.7943L138.653 45.6633L140.606 46.7943L138.653 47.9178Z" fill="#419586"/>
<path d="M142.553 50.1725L140.606 49.0416L142.553 47.918L144.506 49.0416L142.553 50.1725Z" fill="#419586"/>
<path d="M146.452 52.4197L144.506 51.2961L146.452 50.1725L148.405 51.2961L146.452 52.4197Z" fill="#419586"/>
<path d="M111.334 36.6672L109.381 35.5363L111.327 34.4127L113.28 35.5363L111.334 36.6672Z" fill="#419586"/>
<path d="M115.234 38.9147L113.28 37.7911L115.234 36.6675L117.18 37.7911L115.234 38.9147Z" fill="#419586"/>
<path opacity="0.4" d="M119.133 41.1691L117.18 40.0455L119.133 38.9146L121.079 40.0455L119.133 41.1691Z" fill="#419586"/>
<path d="M123.033 43.4235L121.079 42.2925L123.033 41.1689L124.986 42.2925L123.033 43.4235Z" fill="#419586"/>
<path d="M126.932 45.678L124.986 44.547L126.932 43.4235L128.886 44.547L126.932 45.678Z" fill="#419586"/>
<path opacity="0.1" d="M130.832 47.9253L128.886 46.8017L130.832 45.6781L132.785 46.8017L130.832 47.9253Z" fill="#419586"/>
<path opacity="0.4" d="M134.739 50.1798L132.785 49.0562L134.739 47.9253L136.685 49.0562L134.739 50.1798Z" fill="#419586"/>
<path d="M138.638 52.4343L136.685 51.3034L138.638 50.1798L140.584 51.3034L138.638 52.4343Z" fill="#419586"/>
<path opacity="0.1" d="M142.537 54.6817L140.584 53.5582L142.537 52.4346L144.491 53.5582L142.537 54.6817Z" fill="#419586"/>
<path d="M107.413 38.9293L105.467 37.7984L107.413 36.6748L109.366 37.7984L107.413 38.9293Z" fill="#419586"/>
<path opacity="0.4" d="M111.312 41.1766L109.366 40.053L111.312 38.9294L113.266 40.053L111.312 41.1766Z" fill="#419586"/>
<path d="M115.219 43.4313L113.266 42.3077L115.219 41.1768L117.165 42.3077L115.219 43.4313Z" fill="#419586"/>
<path d="M119.119 45.6855L117.166 44.5546L119.119 43.431L121.066 44.5546L119.119 45.6855Z" fill="#419586"/>
<path d="M123.018 47.9328L121.064 46.8093L123.018 45.6857L124.971 46.8093L123.018 47.9328Z" fill="#419586"/>
<path d="M126.918 50.1874L124.972 49.0638L126.918 47.9329L128.871 49.0638L126.918 50.1874Z" fill="#419586"/>
<path d="M130.817 52.4419L128.871 51.311L130.817 50.1874L132.771 51.311L130.817 52.4419Z" fill="#419586"/>
<path opacity="0.4" d="M134.724 54.6962L132.771 53.5652L134.724 52.4417L136.67 53.5652L134.724 54.6962Z" fill="#419586"/>
<path d="M138.623 56.9433L136.67 55.8198L138.623 54.6962L140.569 55.8198L138.623 56.9433Z" fill="#419586"/>
<path d="M103.498 41.191L101.545 40.0601L103.498 38.9365L105.444 40.0601L103.498 41.191Z" fill="#419586"/>
<path opacity="0.1" d="M107.398 43.4383L105.444 42.3147L107.398 41.1912L109.351 42.3147L107.398 43.4383Z" fill="#419586"/>
<path d="M111.298 45.6929L109.352 44.5693L111.298 43.4384L113.251 44.5693L111.298 45.6929Z" fill="#419586"/>
<path d="M115.197 47.9475L113.251 46.8166L115.197 45.693L117.15 46.8166L115.197 47.9475Z" fill="#419586"/>
<path d="M119.104 50.1947L117.15 49.0711L119.104 47.9475L121.05 49.0711L119.104 50.1947Z" fill="#419586"/>
<path d="M123.003 52.449L121.05 51.3254L123.003 50.1945L124.949 51.3254L123.003 52.449Z" fill="#419586"/>
<path opacity="0.4" d="M126.903 54.7036L124.949 53.5727L126.903 52.4491L128.856 53.5727L126.903 54.7036Z" fill="#419586"/>
<path d="M130.803 56.9508L128.856 55.8272L130.803 54.7036L132.756 55.8272L130.803 56.9508Z" fill="#419586"/>
<path d="M134.702 59.2054L132.756 58.0819L134.702 56.9509L136.655 58.0819L134.702 59.2054Z" fill="#419586"/>
<path d="M200.891 183.688C199.826 183.688 198.776 183.409 197.865 182.88L162.961 162.722C162.41 162.406 162.087 161.841 162.087 161.209C162.087 160.577 162.41 160.012 162.961 159.696L226.117 123.235C226.219 123.176 226.352 123.176 226.462 123.235L264.223 145.038C264.766 145.354 265.097 145.919 265.097 146.551C265.097 147.183 264.774 147.748 264.223 148.064L203.924 182.873C202.999 183.402 201.956 183.688 200.891 183.688ZM226.285 123.932L163.306 160.291C162.975 160.482 162.777 160.827 162.777 161.209C162.777 161.591 162.975 161.936 163.306 162.127L198.211 182.278C199.834 183.218 201.956 183.218 203.579 182.278L263.878 147.469C264.208 147.278 264.407 146.933 264.407 146.551C264.407 146.169 264.208 145.824 263.878 145.633L226.285 123.932Z" fill="#419586"/>
<path d="M226.359 109.15L217.958 59.3153L218.633 59.0289L217.62 58.4488V58.4561C217.422 58.3239 217.143 58.3313 216.834 58.5075L149.698 97.2675C149.147 97.5833 148.729 98.3985 148.824 98.9713L157.291 149.202C157.336 149.467 157.468 149.635 157.644 149.716L158.635 150.289L158.804 149.364L158.745 149.378L225.47 110.853C226.043 110.538 226.454 109.722 226.359 109.15Z" fill="#344E6C"/>
<path d="M150.08 98.6262L148.978 98.1415C148.853 98.4205 148.795 98.7216 148.839 98.9713L157.306 149.202C157.35 149.467 157.482 149.635 157.659 149.716L158.65 150.289L158.819 149.364L158.76 149.378L162.138 147.432L150.08 98.6262Z" fill="#55759A"/>
<path d="M226.542 111.463L159.406 150.223C158.885 150.524 158.444 150.348 158.356 149.812L149.889 99.5809C149.793 99.0081 150.212 98.193 150.763 97.8772L217.899 59.1172C218.42 58.8161 218.861 58.9923 218.949 59.5284L227.416 109.759C227.511 110.325 227.093 111.14 226.542 111.463Z" fill="#192533"/>
<g opacity="0.51">
<path d="M217.017 62.3188L152.305 99.6762L160.331 146.992L225 109.649L217.017 62.3188Z" fill="#2A3A4D"/>
</g>
<path d="M268.747 135.242L265.082 137.158L228.342 115.95C227.725 115.597 226.653 115.641 225.94 116.053L162.579 152.632C161.969 152.294 159.208 150.965 159.208 150.965L160.552 154.46C160.552 154.46 160.559 154.46 160.559 154.453C160.618 154.607 160.736 154.754 160.934 154.871L199.628 177.211C200.245 177.563 201.317 177.519 202.029 177.108L266.867 139.67C267.16 139.501 267.337 139.295 267.41 139.09H267.417L268.747 135.242Z" fill="#55759A"/>
<path d="M268.174 135.844L201.721 174.208C200.994 174.626 199.892 174.67 199.261 174.31L159.605 151.413C158.973 151.046 159.054 150.414 159.781 149.995L226.234 111.632C226.961 111.213 228.063 111.169 228.694 111.529L268.35 134.427C268.982 134.787 268.901 135.425 268.174 135.844Z" fill="#344E6C"/>
<path d="M268.173 135.462L201.72 173.825C200.993 174.244 199.892 174.288 199.26 173.928L159.604 151.03C159.399 150.913 159.274 150.759 159.222 150.605C159.119 150.906 159.244 151.207 159.604 151.42L199.26 174.317C199.892 174.684 200.993 174.633 201.72 174.214L268.173 135.851C268.665 135.572 268.849 135.19 268.731 134.86C268.665 135.073 268.482 135.286 268.173 135.462Z" fill="#EDE7D9"/>
<path d="M181.68 165.909V165.182C181.68 165.116 181.724 165.079 181.775 165.108L184.345 166.592C184.397 166.621 184.441 166.702 184.441 166.768V167.495C184.441 167.561 184.397 167.598 184.345 167.569L181.775 166.085C181.724 166.063 181.68 165.982 181.68 165.909Z" fill="#010101"/>
<path d="M185.528 168.127V167.4C185.528 167.334 185.572 167.297 185.624 167.327L188.194 168.81C188.245 168.839 188.29 168.92 188.29 168.986V169.713C188.29 169.779 188.245 169.816 188.194 169.787L185.624 168.303C185.565 168.281 185.528 168.2 185.528 168.127Z" fill="#010101"/>
<path d="M169.952 149.276L225.177 117.397C225.544 117.184 225.999 117.184 226.366 117.397L246.033 128.772C246.312 128.934 246.312 129.345 246.033 129.506L190.838 161.371C190.47 161.584 190.015 161.584 189.648 161.371L169.96 150.01C169.666 149.848 169.666 149.437 169.952 149.276Z" fill="#70B8A1"/>
<path d="M169.952 150.01L170.15 150.128L225.177 118.359C225.544 118.146 225.999 118.146 226.366 118.359L245.835 129.624L246.033 129.506C246.312 129.345 246.312 128.934 246.033 128.772L226.366 117.397C225.999 117.184 225.544 117.184 225.177 117.397L169.952 149.276C169.666 149.437 169.666 149.848 169.952 150.01Z" fill="#192533"/>
<path d="M227.849 120.276L179.88 147.969L177.743 146.735L225.712 119.042L227.849 120.276Z" fill="#192533"/>
<path d="M233.078 123.294L188.083 149.268L185.953 148.035L230.941 122.06L233.078 123.294Z" fill="#192533"/>
<path d="M236.479 125.262L183.509 155.841L181.379 154.614L234.349 124.028L236.479 125.262Z" fill="#192533"/>
<path d="M239.885 127.223L186.915 157.809L184.778 156.575L237.756 125.996L239.885 127.223Z" fill="#192533"/>
<path d="M243.293 129.191L190.315 159.777L188.186 158.543L241.156 127.957L243.293 129.191Z" fill="#192533"/>
<path d="M176.98 149.643L174.85 150.869L172.713 149.643L174.85 148.409L176.98 149.643Z" fill="#192533"/>
<path d="M184.507 151.332L180.078 153.895L177.941 152.661L182.37 150.105L184.507 151.332Z" fill="#192533"/>
<path d="M227.299 156.987L242.192 148.387C242.772 148.049 242.772 147.506 242.192 147.168L232.006 141.286C231.426 140.948 230.479 140.948 229.898 141.286L215.005 149.885C214.425 150.223 214.425 150.766 215.005 151.104L225.184 156.979C225.771 157.324 226.719 157.324 227.299 156.987Z" fill="#55759A"/>
<path d="M215.013 150.392L229.906 141.792C230.486 141.455 231.433 141.455 232.013 141.792L242.199 147.675C242.375 147.778 242.493 147.902 242.566 148.035C242.72 147.741 242.603 147.41 242.199 147.175L232.013 141.3C231.433 140.963 230.486 140.963 229.906 141.3L215.013 149.9C214.609 150.135 214.491 150.465 214.645 150.759C214.711 150.62 214.829 150.495 215.013 150.392Z" fill="#192533"/>
<g opacity="0.11">
<mask id="mask0_715_3534" style="mask-type:luminance" maskUnits="userSpaceOnUse" x="152" y="62" width="73" height="85">
<path d="M217.017 62.3188L152.305 99.6762L160.331 146.992L225 109.649L217.017 62.3188Z" fill="white"/>
</mask>
<g mask="url(#mask0_715_3534)">
<path d="M226.308 111.551L159.854 149.915C159.127 150.333 158.026 150.377 157.394 150.017L117.738 127.12C117.107 126.753 117.188 126.121 117.915 125.702L184.368 87.339C185.095 86.9204 186.196 86.8763 186.828 87.2361L226.484 110.134C227.115 110.501 227.035 111.133 226.308 111.551Z" fill="#344E6C"/>
<path d="M159.656 118.432L174.549 109.833C175.129 109.495 175.129 108.951 174.549 108.614L164.364 102.739C163.783 102.401 162.836 102.401 162.256 102.739L147.363 111.338C146.783 111.676 146.783 112.219 147.363 112.557L157.541 118.432C158.129 118.77 159.076 118.77 159.656 118.432Z" fill="#344E6C"/>
<path d="M147.371 111.837L162.256 103.238C162.836 102.9 163.784 102.9 164.364 103.238L174.55 109.113C174.726 109.216 174.843 109.341 174.917 109.473C175.071 109.179 174.953 108.849 174.55 108.614L164.364 102.739C163.784 102.401 162.836 102.401 162.256 102.739L147.363 111.338C146.959 111.573 146.842 111.904 146.996 112.197C147.069 112.065 147.187 111.94 147.371 111.837Z" fill="#192533"/>
<path d="M140.82 131.864L196.044 99.9848C196.411 99.7718 196.867 99.7718 197.234 99.9848L216.9 111.36C217.179 111.522 217.179 111.933 216.9 112.095L161.705 143.959C161.338 144.172 160.883 144.172 160.516 143.959L140.827 132.598C140.541 132.437 140.541 132.033 140.82 131.864Z" fill="#70B8A1"/>
<path d="M140.82 132.598L141.018 132.716L196.044 100.947C196.411 100.734 196.867 100.734 197.234 100.947L216.702 112.212L216.9 112.095C217.179 111.933 217.187 111.522 216.9 111.36L197.234 99.9848C196.867 99.7718 196.411 99.7718 196.044 99.9848L140.82 131.864C140.541 132.033 140.541 132.437 140.82 132.598Z" fill="#192533"/>
<path d="M211.752 110.589L163.644 138.363L165.553 139.464L213.654 111.683L211.752 110.589Z" fill="#192533"/>
<path d="M206.685 107.659L160.956 134.059L162.865 135.161L208.587 108.76L206.685 107.659Z" fill="#192533"/>
<path d="M157.541 136.027L153.274 138.495L155.176 139.596L159.45 137.129L157.541 136.027Z" fill="#192533"/>
<path d="M161.316 139.707L158.342 141.425L160.244 142.527L163.218 140.808L161.316 139.707Z" fill="#192533"/>
<path d="M203.505 105.823L150.095 136.659L152.004 137.761L205.415 106.924L203.505 105.823Z" fill="#192533"/>
<path d="M200.333 103.994L146.922 134.831L148.824 135.932L202.235 105.096L200.333 103.994Z" fill="#192533"/>
<path d="M197.153 102.159L143.742 132.995L145.652 134.096L199.062 103.26L197.153 102.159Z" fill="#192533"/>
</g>
</g>
<path d="M176.672 128.948L181.908 125.923L182.062 126.833L176.826 129.859L176.672 128.948Z" fill="#419586"/>
<path d="M182.752 125.438L185.601 123.793L185.756 124.704L182.899 126.349L182.752 125.438Z" fill="#419586"/>
<path d="M190.037 121.23L192.101 120.04L192.255 120.944L190.191 122.141L190.037 121.23Z" fill="#419586"/>
<path d="M188.532 122.104L189.237 121.693L189.391 122.603L188.686 123.007L188.532 122.104Z" fill="#419586"/>
<path d="M186.453 123.301L187.738 122.567L187.885 123.47L186.607 124.212L186.453 123.301Z" fill="#419586"/>
<path d="M180.813 121.994L182.877 120.804L183.031 121.715L180.968 122.904L180.813 121.994Z" fill="#419586"/>
<path d="M175.967 124.799L180.013 122.456L180.167 123.367L176.121 125.71L175.967 124.799Z" fill="#419586"/>
<path d="M181.769 110.06L185.815 107.725L185.969 108.636L181.923 110.971L181.769 110.06Z" fill="#419586"/>
<path d="M179.69 111.265L180.968 110.523L181.122 111.434L179.845 112.176L179.69 111.265Z" fill="#419586"/>
<path d="M182.444 114.224L186.491 111.881L186.638 112.792L182.599 115.135L182.444 114.224Z" fill="#419586"/>
<path d="M180.365 115.422L181.643 114.687L181.797 115.59L180.512 116.332L180.365 115.422Z" fill="#419586"/>
<path d="M178.779 92.1125L171.164 96.5187L171.01 95.6081L178.633 91.2019L178.779 92.1125Z" fill="#419586"/>
<path d="M181.467 90.563L179.58 91.6498L179.426 90.7392L181.313 89.6523L181.467 90.563Z" fill="#419586"/>
<path d="M194.855 89.6817L187.239 94.0806L187.085 93.17L194.7 88.7711L194.855 89.6817Z" fill="#419586"/>
<path d="M197.543 88.1246L195.655 89.2188L195.501 88.3082L197.388 87.2213L197.543 88.1246Z" fill="#419586"/>
<path d="M173.58 97.3999L171.517 98.5969L171.362 97.6863L173.426 96.4893L173.58 97.3999Z" fill="#419586"/>
<path d="M186.138 94.7046L184.074 95.9016L183.92 94.991L185.983 93.8013L186.138 94.7046Z" fill="#419586"/>
<path d="M178.427 94.6019L174.381 96.9372L174.227 96.0266L178.273 93.6913L178.427 94.6019Z" fill="#419586"/>
<path d="M180.505 93.3978L179.22 94.1395L179.073 93.2289L180.351 92.4872L180.505 93.3978Z" fill="#419586"/>
<path d="M185.389 90.5848L181.343 92.9201L181.188 92.0095L185.235 89.6742L185.389 90.5848Z" fill="#419586"/>
<path d="M187.467 89.3803L186.182 90.1221L186.035 89.2114L187.313 88.4697L187.467 89.3803Z" fill="#419586"/>
<path d="M185.785 92.6264L183.722 93.8234L183.567 92.9128L185.631 91.7231L185.785 92.6264Z" fill="#419586"/>
<path d="M190.632 89.8285L186.586 92.1638L186.432 91.2605L190.478 88.9178L190.632 89.8285Z" fill="#419586"/>
<path d="M192.71 88.6244L191.433 89.3661L191.278 88.4554L192.556 87.7211L192.71 88.6244Z" fill="#419586"/>
<path d="M176.092 98.2296L171.869 100.668L171.715 99.7644L175.937 97.319L176.092 98.2296Z" fill="#419586"/>
<path d="M179.94 96.0045L176.892 97.767L176.738 96.8564L179.793 95.0939L179.94 96.0045Z" fill="#419586"/>
<path d="M182.804 94.3447L180.74 95.5417L180.586 94.6311L182.657 93.4341L182.804 94.3447Z" fill="#419586"/>
<path d="M202.823 85.0845L198.601 87.5226L198.446 86.6119L202.669 84.1738L202.823 85.0845Z" fill="#419586"/>
<path d="M206.678 82.852L203.623 84.6218L203.469 83.7112L206.524 81.9487L206.678 82.852Z" fill="#419586"/>
<path d="M209.542 81.1997L207.478 82.3894L207.324 81.4861L209.388 80.2891L209.542 81.1997Z" fill="#419586"/>
<path d="M201.178 112.52L205.4 110.082L205.555 110.993L201.332 113.431L201.178 112.52Z" fill="#419586"/>
<path d="M197.322 114.753L200.377 112.983L200.531 113.894L197.476 115.656L197.322 114.753Z" fill="#419586"/>
<path d="M194.458 116.405L196.522 115.216L196.676 116.119L194.612 117.316L194.458 116.405Z" fill="#419586"/>
<path d="M199.775 115.62L203.998 113.182L204.152 114.092L199.93 116.53L199.775 115.62Z" fill="#419586"/>
<path d="M195.92 117.845L198.975 116.082L199.129 116.993L196.074 118.755L195.92 117.845Z" fill="#419586"/>
<path d="M193.056 119.504L195.119 118.307L195.273 119.218L193.21 120.415L193.056 119.504Z" fill="#419586"/>
<path d="M182.723 111.779L184.147 110.956L184.302 111.867L182.877 112.689L182.723 111.779Z" fill="#419586"/>
<path d="M180.035 113.329L181.922 112.242L182.077 113.152L180.189 114.239L180.035 113.329Z" fill="#419586"/>
<path d="M176.466 100.293L172.243 102.731L172.089 101.828L176.311 99.3827L176.466 100.293Z" fill="#419586"/>
<path d="M180.321 98.0681L177.267 99.8306L177.112 98.92L180.167 97.1575L180.321 98.0681Z" fill="#419586"/>
<path d="M183.186 96.4084L181.122 97.6054L180.968 96.6948L183.031 95.5051L183.186 96.4084Z" fill="#419586"/>
<path d="M174.02 103.987L172.596 104.81L172.441 103.899L173.866 103.077L174.02 103.987Z" fill="#419586"/>
<path d="M176.709 102.438L174.821 103.524L174.667 102.614L176.554 101.527L176.709 102.438Z" fill="#419586"/>
<path d="M180.542 100.22L177.509 101.975L177.354 101.064L180.387 99.3092L180.542 100.22Z" fill="#419586"/>
<path d="M184.662 117.507L186.087 116.684L186.241 117.588L184.816 118.417L184.662 117.507Z" fill="#419586"/>
<path d="M181.974 119.057L183.861 117.97L184.015 118.88L182.128 119.967L181.974 119.057Z" fill="#419586"/>
<path d="M178.141 121.274L181.174 119.519L181.328 120.43L178.295 122.185L178.141 121.274Z" fill="#419586"/>
<path d="M186.835 114.136L189.868 112.381L190.022 113.292L186.989 115.047L186.835 114.136Z" fill="#419586"/>
<path d="M181.864 116.846L185.962 114.474L186.116 115.385L182.018 117.749L181.864 116.846Z" fill="#419586"/>
<path d="M179.785 118.043L181.07 117.309L181.217 118.212L179.939 118.954L179.785 118.043Z" fill="#419586"/>
<path d="M177.788 119.203L179.073 118.461L179.22 119.365L177.942 120.106L177.788 119.203Z" fill="#419586"/>
<path d="M178.06 107.468L182.106 105.125L182.26 106.036L178.214 108.371L178.06 107.468Z" fill="#419586"/>
<path d="M175.981 108.665L177.267 107.923L177.413 108.834L176.136 109.576L175.981 108.665Z" fill="#419586"/>
<path d="M178.339 105.023L179.771 104.2L179.925 105.111L178.493 105.933L178.339 105.023Z" fill="#419586"/>
<path d="M183.376 106.69L184.801 105.86L184.955 106.771L183.53 107.593L183.376 106.69Z" fill="#419586"/>
<path d="M185.41 105.515L188.832 103.539L188.987 104.443L185.564 106.425L185.41 105.515Z" fill="#419586"/>
<path d="M189.442 103.187L191.477 102.012L191.631 102.922L189.597 104.097L189.442 103.187Z" fill="#419586"/>
<path d="M175.658 106.572L177.538 105.485L177.692 106.396L175.812 107.483L175.658 106.572Z" fill="#419586"/>
<path d="M175.482 104.442L176.907 103.62L177.061 104.523L175.637 105.353L175.482 104.442Z" fill="#419586"/>
<path d="M172.794 105.992L174.681 104.905L174.835 105.816L172.948 106.902L172.794 105.992Z" fill="#419586"/>
<path d="M181.306 107.879L182.591 107.137L182.745 108.048L181.46 108.79L181.306 107.879Z" fill="#419586"/>
<path d="M179.308 109.032L180.593 108.298L180.747 109.201L179.462 109.943L179.308 109.032Z" fill="#419586"/>
<path d="M189.148 119.475L193.518 116.949L193.672 117.859L189.303 120.378L189.148 119.475Z" fill="#419586"/>
<path d="M184.258 122.302L188.348 119.938L188.502 120.841L184.412 123.213L184.258 122.302Z" fill="#419586"/>
<path d="M182.172 123.507L183.457 122.765L183.611 123.676L182.326 124.41L182.172 123.507Z" fill="#419586"/>
<path d="M180.175 124.66L181.46 123.918L181.614 124.828L180.329 125.57L180.175 124.66Z" fill="#419586"/>
<path d="M179.088 125.291L176.319 126.885L176.474 127.795L179.242 126.195L179.088 125.291Z" fill="#419586"/>
<path d="M68.6459 183.688C67.581 183.688 66.5309 183.409 65.6202 182.88L5.32117 148.071C4.77773 147.755 4.44727 147.19 4.44727 146.558C4.44727 145.927 4.77039 145.361 5.32117 145.045L43.0824 123.242C43.1926 123.183 43.3174 123.183 43.4276 123.242L106.576 159.704C107.127 160.019 107.45 160.585 107.45 161.216C107.45 161.848 107.127 162.413 106.576 162.729L71.6715 182.88C70.7608 183.402 69.7107 183.688 68.6459 183.688ZM65.9654 182.278C67.5884 183.218 69.7107 183.218 71.3336 182.278L106.238 162.127C106.569 161.936 106.767 161.591 106.767 161.209C106.767 160.827 106.569 160.482 106.238 160.291L43.2587 123.932L43.1339 123.998L5.66632 145.633C5.33585 145.824 5.13757 146.169 5.13757 146.551C5.13757 146.933 5.33585 147.278 5.66632 147.469L65.9654 182.278Z" fill="#419586"/>
<path d="M43.1779 109.15L51.579 59.3153L50.9034 59.0289L51.9168 58.4488V58.4561C52.1151 58.3239 52.3942 58.3313 52.7026 58.5075L119.839 97.2675C120.389 97.5833 120.808 98.3985 120.713 98.9713L112.245 149.202C112.201 149.467 112.069 149.635 111.893 149.716L110.901 150.289L110.733 149.364L110.791 149.378L44.0664 110.853C43.4936 110.538 43.0824 109.722 43.1779 109.15Z" fill="#344E6C"/>
<path d="M119.457 98.6262L120.558 98.1415C120.683 98.4205 120.742 98.7216 120.698 98.9713L112.231 149.202C112.187 149.467 112.054 149.635 111.878 149.716L110.887 150.289L110.718 149.364L110.777 149.378L107.398 147.432L119.457 98.6262Z" fill="#55759A"/>
<path d="M42.994 111.463L110.13 150.223C110.651 150.524 111.092 150.348 111.18 149.812L119.647 99.5809C119.743 99.0081 119.324 98.193 118.774 97.8772L51.6375 59.1172C51.1161 58.8161 50.6755 58.9923 50.5873 59.5284L42.1201 109.759C42.0246 110.325 42.4432 111.14 42.994 111.463Z" fill="#192533"/>
<g opacity="0.51">
<path d="M52.5187 62.3188L117.231 99.6762L109.205 146.992L44.5361 109.649L52.5187 62.3188Z" fill="#2A3A4D"/>
</g>
<path d="M0.790039 135.242L4.45455 137.158L41.1951 115.95C41.8119 115.597 42.8841 115.641 43.5964 116.053L106.958 152.632C107.567 152.294 110.329 150.965 110.329 150.965L108.985 154.46C108.985 154.46 108.977 154.46 108.977 154.453C108.919 154.607 108.801 154.754 108.603 154.871L69.9089 177.211C69.292 177.563 68.2199 177.519 67.5075 177.108L2.67003 139.67C2.37628 139.501 2.20003 139.295 2.12659 139.09H2.11925L0.790039 135.242Z" fill="#55759A"/>
<path d="M1.36289 135.844L67.816 174.208C68.543 174.626 69.6446 174.67 70.2761 174.31L109.932 151.413C110.564 151.046 110.483 150.414 109.756 149.995L43.3027 111.632C42.5757 111.213 41.4742 111.169 40.8426 111.529L1.18664 134.427C0.555081 134.787 0.63586 135.425 1.36289 135.844Z" fill="#344E6C"/>
<path d="M1.36296 135.462L67.8161 173.825C68.5431 174.244 69.6446 174.288 70.2762 173.928L109.932 151.03C110.138 150.913 110.263 150.759 110.314 150.605C110.417 150.906 110.292 151.207 109.932 151.42L70.2762 174.317C69.6446 174.684 68.5431 174.633 67.8161 174.214L1.36296 135.851C0.870933 135.572 0.687345 135.19 0.804844 134.86C0.870937 135.073 1.05453 135.286 1.36296 135.462Z" fill="#EDE7D9"/>
<path d="M87.8569 165.909V165.182C87.8569 165.116 87.8129 165.079 87.7615 165.108L85.1912 166.592C85.1398 166.621 85.0957 166.702 85.0957 166.768V167.495C85.0957 167.561 85.1398 167.598 85.1912 167.569L87.7615 166.085C87.8129 166.063 87.8569 165.982 87.8569 165.909Z" fill="#010101"/>
<path d="M84.0093 168.127V167.4C84.0093 167.334 83.9652 167.297 83.9138 167.327L81.3435 168.81C81.2921 168.839 81.248 168.92 81.248 168.986V169.713C81.248 169.779 81.2921 169.816 81.3435 169.787L83.9138 168.303C83.9726 168.281 84.0093 168.2 84.0093 168.127Z" fill="#010101"/>
<path d="M99.5849 149.276L44.3603 117.397C43.9931 117.184 43.5378 117.184 43.1706 117.397L23.5042 128.772C23.2252 128.934 23.2252 129.345 23.5042 129.506L78.6994 161.371C79.0666 161.584 79.5219 161.584 79.8891 161.371L99.5776 150.01C99.8713 149.848 99.8713 149.437 99.5849 149.276Z" fill="#70B8A1"/>
<path d="M99.5849 150.01L99.3866 150.128L44.3603 118.359C43.9931 118.146 43.5378 118.146 43.1706 118.359L23.7025 129.624L23.5042 129.506C23.2252 129.345 23.2252 128.934 23.5042 128.772L43.1706 117.397C43.5378 117.184 43.9931 117.184 44.3603 117.397L99.5849 149.276C99.8713 149.437 99.8713 149.848 99.5849 150.01Z" fill="#192533"/>
<path d="M46.3066 122.941L93.0493 149.929L95.0688 148.629L48.451 121.714L46.3066 122.941Z" fill="#192533"/>
<path d="M43.2734 127.222L85.7127 151.728L87.1667 150.105L45.4031 125.996L43.2734 127.222Z" fill="#192533"/>
<path d="M33.0586 125.261L86.0287 155.841L88.1583 154.614L35.1883 124.028L33.0586 125.261Z" fill="#192533"/>
<path d="M29.6504 127.222L82.6205 157.809L84.7575 156.575L31.7801 125.996L29.6504 127.222Z" fill="#192533"/>
<path d="M26.2432 129.191L79.2206 159.777L81.3503 158.543L28.3802 127.957L26.2432 129.191Z" fill="#192533"/>
<path d="M92.5566 149.643L94.6863 150.869L96.8233 149.643L94.6863 148.409L92.5566 149.643Z" fill="#192533"/>
<path d="M85.0293 151.332L89.4575 153.895L91.5946 152.661L87.1663 150.105L85.0293 151.332Z" fill="#192533"/>
<path d="M42.2383 156.987L27.3453 148.387C26.7651 148.049 26.7651 147.506 27.3453 147.168L37.531 141.286C38.1111 140.948 39.0585 140.948 39.6386 141.286L54.5316 149.885C55.1118 150.223 55.1118 150.766 54.5316 151.104L44.3459 156.979C43.7658 157.324 42.8184 157.324 42.2383 156.987Z" fill="#344E6C"/>
<path d="M54.5241 150.392L39.6311 141.792C39.051 141.455 38.1036 141.455 37.5235 141.792L27.3378 147.675C27.1615 147.778 27.044 147.902 26.9706 148.035C26.8164 147.741 26.9339 147.41 27.3378 147.175L37.5235 141.3C38.1036 140.963 39.051 140.963 39.6311 141.3L54.5241 149.9C54.928 150.135 55.0455 150.465 54.8913 150.759C54.8252 150.62 54.7077 150.495 54.5241 150.392Z" fill="#192533"/>
<g opacity="0.11">
<mask id="mask1_715_3534" style="mask-type:luminance" maskUnits="userSpaceOnUse" x="44" y="62" width="74" height="85">
<path d="M52.5187 62.3188L117.231 99.6762L109.205 146.992L44.5361 109.649L52.5187 62.3188Z" fill="white"/>
</mask>
<g mask="url(#mask1_715_3534)">
<path d="M43.2291 111.551L109.682 149.915C110.409 150.333 111.511 150.377 112.142 150.017L151.798 127.12C152.43 126.753 152.349 126.121 151.622 125.702L85.1689 87.339C84.4419 86.9204 83.3404 86.8763 82.7088 87.2361L43.0528 110.134C42.4213 110.501 42.5021 111.133 43.2291 111.551Z" fill="#344E6C"/>
<path d="M109.881 118.432L94.9878 109.833C94.4077 109.495 94.4077 108.951 94.9878 108.614L105.174 102.739C105.754 102.401 106.701 102.401 107.281 102.739L122.174 111.338C122.754 111.676 122.754 112.219 122.174 112.557L111.996 118.432C111.408 118.77 110.461 118.77 109.881 118.432Z" fill="#344E6C"/>
<path d="M122.166 111.837L107.281 103.238C106.7 102.9 105.753 102.9 105.173 103.238L94.9872 109.113C94.8109 109.216 94.6934 109.341 94.62 109.473C94.4658 109.179 94.5833 108.849 94.9872 108.614L105.173 102.739C105.753 102.401 106.7 102.401 107.281 102.739L122.174 111.338C122.577 111.573 122.695 111.904 122.541 112.197C122.467 112.065 122.35 111.94 122.166 111.837Z" fill="#192533"/>
<path d="M128.718 131.864L73.4931 99.9847C73.1259 99.7717 72.6706 99.7717 72.3034 99.9847L52.637 111.36C52.358 111.522 52.358 111.933 52.637 112.094L107.832 143.959C108.199 144.172 108.655 144.172 109.022 143.959L128.71 132.598C128.997 132.436 128.997 132.033 128.718 131.864Z" fill="#70B8A1"/>
<path d="M128.718 132.598L128.519 132.716L73.493 100.947C73.1258 100.734 72.6705 100.734 72.3033 100.947L52.8351 112.212L52.6369 112.095C52.3578 111.933 52.3505 111.522 52.6369 111.36L72.3033 99.9848C72.6705 99.7718 73.1258 99.7718 73.493 99.9848L128.718 131.864C128.997 132.033 128.997 132.437 128.718 132.598Z" fill="#192533"/>
<path d="M57.7848 110.589L105.893 138.363L103.984 139.464L55.8828 111.683L57.7848 110.589Z" fill="#192533"/>
<path d="M62.8522 107.659L108.581 134.059L106.672 135.161L60.9502 108.76L62.8522 107.659Z" fill="#192533"/>
<path d="M111.996 136.027L116.263 138.495L114.361 139.596L110.087 137.129L111.996 136.027Z" fill="#192533"/>
<path d="M108.221 139.707L111.196 141.425L109.294 142.527L106.319 140.808L108.221 139.707Z" fill="#192533"/>
<path d="M66.0314 105.823L119.442 136.659L117.533 137.761L64.1221 106.924L66.0314 105.823Z" fill="#192533"/>
<path d="M69.2038 103.994L122.614 134.831L120.712 135.932L67.3018 105.096L69.2038 103.994Z" fill="#192533"/>
<path d="M72.384 102.158L125.795 132.995L123.885 134.096L70.4746 103.26L72.384 102.158Z" fill="#192533"/>
</g>
</g>
<path d="M67.0088 79.8558L72.2448 82.8814L72.3991 81.9708L67.163 78.9452L67.0088 79.8558Z" fill="#419586"/>
<path d="M73.0889 83.3587L75.9382 85.011L76.0924 84.1004L73.2431 82.4554L73.0889 83.3587Z" fill="#419586"/>
<path d="M80.3818 87.574L82.4454 88.7636L82.5996 87.853L80.5287 86.6633L80.3818 87.574Z" fill="#419586"/>
<path d="M78.876 86.6999L79.581 87.1111L79.7352 86.2005L79.0228 85.7966L78.876 86.6999Z" fill="#419586"/>
<path d="M76.791 85.5029L78.0762 86.2373L78.2304 85.334L76.9452 84.5923L76.791 85.5029Z" fill="#419586"/>
<path d="M71.1504 86.8028L73.214 87.9998L73.3682 87.0892L71.3046 85.8995L71.1504 86.8028Z" fill="#419586"/>
<path d="M66.3115 84.005L70.3506 86.3403L70.5048 85.437L66.4584 83.0944L66.3115 84.005Z" fill="#419586"/>
<path d="M72.1055 98.7436L76.1518 101.079L76.3061 100.168L72.2597 97.833L72.1055 98.7436Z" fill="#419586"/>
<path d="M70.0273 97.5394L71.3052 98.2811L71.4594 97.3705L70.1816 96.6288L70.0273 97.5394Z" fill="#419586"/>
<path d="M72.7812 94.5798L76.8276 96.9151L76.9818 96.0118L72.9355 93.6692L72.7812 94.5798Z" fill="#419586"/>
<path d="M70.7021 93.3755L71.98 94.1172L72.1342 93.2065L70.8564 92.4722L70.7021 93.3755Z" fill="#419586"/>
<path d="M69.1237 116.692L61.5009 112.285L61.3467 113.196L68.9694 117.595L69.1237 116.692Z" fill="#419586"/>
<path d="M71.8037 118.241L69.9237 117.154L69.7695 118.058L71.6495 119.152L71.8037 118.241Z" fill="#419586"/>
<path d="M85.1915 119.123L77.5761 114.724L77.4219 115.627L85.0373 120.033L85.1915 119.123Z" fill="#419586"/>
<path d="M87.8794 120.679L85.9921 119.585L85.8379 120.496L87.7252 121.583L87.8794 120.679Z" fill="#419586"/>
<path d="M63.917 111.404L61.8534 110.207L61.6992 111.118L63.7628 112.315L63.917 111.404Z" fill="#419586"/>
<path d="M76.4746 114.099L74.411 112.902L74.2568 113.813L76.3204 115.003L76.4746 114.099Z" fill="#419586"/>
<path d="M68.7641 114.202L64.7177 111.867L64.5635 112.77L68.6099 115.113L68.7641 114.202Z" fill="#419586"/>
<path d="M70.8422 115.406L69.5644 114.665L69.4102 115.575L70.688 116.317L70.8422 115.406Z" fill="#419586"/>
<path d="M75.726 118.219L71.6796 115.884L71.5254 116.795L75.5718 119.13L75.726 118.219Z" fill="#419586"/>
<path d="M77.8041 119.423L76.5263 118.682L76.3721 119.592L77.6499 120.334L77.8041 119.423Z" fill="#419586"/>
<path d="M76.1221 116.17L74.0585 114.98L73.9043 115.891L75.9679 117.081L76.1221 116.17Z" fill="#419586"/>
<path d="M80.9691 118.975L76.9228 116.633L76.7686 117.543L80.8149 119.879L80.9691 118.975Z" fill="#419586"/>
<path d="M83.0473 120.173L81.7695 119.438L81.6152 120.342L82.893 121.083L83.0473 120.173Z" fill="#419586"/>
<path d="M66.4286 110.574L62.206 108.136L62.0518 109.04L66.2744 111.485L66.4286 110.574Z" fill="#419586"/>
<path d="M70.2844 112.8L67.2294 111.037L67.0752 111.948L70.1302 113.71L70.2844 112.8Z" fill="#419586"/>
<path d="M73.1485 114.459L71.0775 113.262L70.9307 114.173L72.9942 115.363L73.1485 114.459Z" fill="#419586"/>
<path d="M93.16 123.72L88.9374 121.281L88.7832 122.192L93.0058 124.63L93.16 123.72Z" fill="#419586"/>
<path d="M97.0149 125.952L93.9599 124.183L93.8057 125.093L96.8606 126.856L97.0149 125.952Z" fill="#419586"/>
<path d="M99.8789 127.604L97.8153 126.407L97.6611 127.318L99.7247 128.515L99.8789 127.604Z" fill="#419586"/>
<path d="M91.5146 96.2837L95.7373 98.7218L95.8915 97.8112L91.6689 95.373L91.5146 96.2837Z" fill="#419586"/>
<path d="M87.6592 94.0512L90.7141 95.8211L90.8684 94.9105L87.8134 93.1406L87.6592 94.0512Z" fill="#419586"/>
<path d="M84.7949 92.3989L86.8585 93.5886L87.0127 92.6853L84.9491 91.4883L84.7949 92.3989Z" fill="#419586"/>
<path d="M90.1123 93.1844L94.3349 95.6225L94.4891 94.7119L90.2665 92.2738L90.1123 93.1844Z" fill="#419586"/>
<path d="M86.2568 90.9522L89.3118 92.7221L89.466 91.8114L86.411 90.049L86.2568 90.9522Z" fill="#419586"/>
<path d="M83.3926 89.2999L85.4562 90.4896L85.6104 89.5863L83.5468 88.3893L83.3926 89.2999Z" fill="#419586"/>
<path d="M73.0596 97.0251L74.4842 97.8476L74.6385 96.937L73.2138 96.1145L73.0596 97.0251Z" fill="#419586"/>
<path d="M70.3721 95.4686L72.2594 96.5628L72.4136 95.6522L70.5263 94.5653L70.3721 95.4686Z" fill="#419586"/>
<path d="M66.8026 108.511L62.58 106.065L62.4258 106.976L66.6484 109.421L66.8026 108.511Z" fill="#419586"/>
<path d="M70.6584 110.736L67.6034 108.974L67.4492 109.884L70.5042 111.647L70.6584 110.736Z" fill="#419586"/>
<path d="M73.5225 112.388L71.4589 111.198L71.3047 112.109L73.3683 113.299L73.5225 112.388Z" fill="#419586"/>
<path d="M64.3572 104.817L62.9325 103.995L62.7783 104.898L64.203 105.728L64.3572 104.817Z" fill="#419586"/>
<path d="M67.0455 106.366L65.1581 105.28L65.0039 106.19L66.8912 107.277L67.0455 106.366Z" fill="#419586"/>
<path d="M70.8786 108.584L67.8456 106.829L67.6914 107.74L70.7243 109.495L70.8786 108.584Z" fill="#419586"/>
<path d="M74.999 91.2972L76.4237 92.1197L76.5779 91.2091L75.1532 90.3866L74.999 91.2972Z" fill="#419586"/>
<path d="M72.3184 89.7477L74.1983 90.8345L74.3526 89.9239L72.4652 88.837L72.3184 89.7477Z" fill="#419586"/>
<path d="M68.4775 87.5296L71.5178 89.2848L71.6721 88.3742L68.6318 86.619L68.4775 87.5296Z" fill="#419586"/>
<path d="M77.1729 94.6679L80.2131 96.4231L80.36 95.5125L77.3271 93.7573L77.1729 94.6679Z" fill="#419586"/>
<path d="M72.208 91.9581L76.2985 94.3301L76.4527 93.4195L72.3549 91.0548L72.208 91.9581Z" fill="#419586"/>
<path d="M70.1221 90.7613L71.4072 91.4957L71.5614 90.5924L70.2763 89.8507L70.1221 90.7613Z" fill="#419586"/>
<path d="M68.125 89.6008L69.4101 90.3425L69.5644 89.4319L68.2792 88.6975L68.125 89.6008Z" fill="#419586"/>
<path d="M68.4033 101.336L72.4424 103.679L72.5966 102.768L68.5575 100.433L68.4033 101.336Z" fill="#419586"/>
<path d="M66.3184 100.139L67.6035 100.874L67.7577 99.9704L66.4726 99.2286L66.3184 100.139Z" fill="#419586"/>
<path d="M68.6826 103.782L70.1073 104.604L70.2615 103.693L68.8295 102.871L68.6826 103.782Z" fill="#419586"/>
<path d="M73.7129 102.114L75.1376 102.944L75.2918 102.034L73.8671 101.204L73.7129 102.114Z" fill="#419586"/>
<path d="M75.7471 103.29L79.1692 105.265L79.3234 104.362L75.9013 102.379L75.7471 103.29Z" fill="#419586"/>
<path d="M79.7793 105.617L81.8135 106.792L81.9677 105.882L79.9335 104.707L79.7793 105.617Z" fill="#419586"/>
<path d="M65.9951 102.232L67.8824 103.319L68.0293 102.409L66.1493 101.322L65.9951 102.232Z" fill="#419586"/>
<path d="M65.8184 104.362L67.243 105.184L67.3972 104.281L65.9726 103.451L65.8184 104.362Z" fill="#419586"/>
<path d="M63.1309 102.812L65.0182 103.899L65.1724 102.988L63.2851 101.902L63.1309 102.812Z" fill="#419586"/>
<path d="M71.6426 100.925L72.9277 101.659L73.0819 100.756L71.7968 100.014L71.6426 100.925Z" fill="#419586"/>
<path d="M69.6445 99.7647L70.9297 100.506L71.0839 99.5958L69.7987 98.8615L69.6445 99.7647Z" fill="#419586"/>
<path d="M79.4854 89.3291L83.8548 91.8553L84.0091 90.9447L79.6396 88.4185L79.4854 89.3291Z" fill="#419586"/>
<path d="M74.5947 86.5017L78.6852 88.8663L78.8394 87.9557L74.7489 85.5911L74.5947 86.5017Z" fill="#419586"/>
<path d="M72.5166 85.2972L73.7944 86.0389L73.9486 85.1283L72.6635 84.3866L72.5166 85.2972Z" fill="#419586"/>
<path d="M70.5186 84.1446L71.7964 84.8863L71.9506 83.9757L70.6728 83.234L70.5186 84.1446Z" fill="#419586"/>
<path d="M69.4253 83.5131L66.6641 81.9195L66.8183 81.0089L69.5795 82.6025L69.4253 83.5131Z" fill="#419586"/>
<path d="M41.6875 120.276L43.8245 121.502L45.9542 120.276L43.8245 119.042L41.6875 120.276Z" fill="#192533"/>
<path d="M36.459 123.294L40.8872 125.849L43.0243 124.616L38.596 122.06L36.459 123.294Z" fill="#192533"/>
</svg>
